solid OpenSCAD_Model
  facet normal -0.176023 -0.685568 -0.706408
    outer loop
      vertex -0.974382 -5.10789 23
      vertex -1.60689 -4.94549 23
      vertex -0.679837 -2.09232 20
    endloop
  endfacet
  facet normal -0.260559 -0.658101 -0.706408
    outer loop
      vertex -1.60689 -4.94549 23
      vertex -2.21405 -4.7051 23
      vertex -0.679837 -2.09232 20
    endloop
  endfacet
  facet normal 0.706408 0.0444396 -0.706408
    outer loop
      vertex 5.2 0 23
      vertex 2.2 0 20
      vertex 5.159 0.651732 23
    endloop
  endfacet
  facet normal 0.706407 0.0444494 -0.706409
    outer loop
      vertex 2.2 0 20
      vertex 2.18265 0.275733 20
      vertex 5.159 0.651732 23
    endloop
  endfacet
  facet normal 0.176029 -0.685567 -0.706408
    outer loop
      vertex 0.974382 -5.10789 23
      vertex 0.412238 -2.16103 20
      vertex 0.679837 -2.09232 20
    endloop
  endfacet
  facet normal -0.706408 0.0444396 -0.706408
    outer loop
      vertex -2.2 0 20
      vertex -5.2 0 23
      vertex -5.159 0.651732 23
    endloop
  endfacet
  facet normal 0.545373 -0.451171 -0.706408
    outer loop
      vertex 3.79064 -3.55964 23
      vertex 1.60373 -1.506 20
      vertex 4.20689 -3.05648 23
    endloop
  endfacet
  facet normal 0.34099 -0.620253 -0.706408
    outer loop
      vertex 2.21405 -4.7051 23
      vertex 1.17882 -1.85752 20
      vertex 2.7863 -4.3905 23
    endloop
  endfacet
  facet normal 0.0887165 -0.702223 -0.706408
    outer loop
      vertex 0.32651 -5.18974 23
      vertex 0.138139 -2.19566 20
      vertex 0.974382 -5.10789 23
    endloop
  endfacet
  facet normal 0.26055 -0.658105 -0.706408
    outer loop
      vertex 2.21405 -4.7051 23
      vertex 0.679837 -2.09232 20
      vertex 0.936714 -1.99062 20
    endloop
  endfacet
  facet normal 0.545363 -0.451186 -0.706407
    outer loop
      vertex 4.20689 -3.05648 23
      vertex 1.60373 -1.506 20
      vertex 1.77984 -1.29313 20
    endloop
  endfacet
  facet normal 0.260559 -0.658101 -0.706408
    outer loop
      vertex 1.60689 -4.94549 23
      vertex 0.679837 -2.09232 20
      vertex 2.21405 -4.7051 23
    endloop
  endfacet
  facet normal -0.597629 0.379247 -0.706407
    outer loop
      vertex -1.92787 1.05986 20
      vertex -4.20689 3.05648 23
      vertex -1.77984 1.29313 20
    endloop
  endfacet
  facet normal -0.0887165 0.702223 -0.706408
    outer loop
      vertex -0.138139 2.19566 20
      vertex -0.974382 5.10789 23
      vertex -0.32651 5.18974 23
    endloop
  endfacet
  facet normal 0.597629 -0.379247 -0.706407
    outer loop
      vertex 4.20689 -3.05648 23
      vertex 1.77984 -1.29313 20
      vertex 1.92787 -1.05986 20
    endloop
  endfacet
  facet normal -0.640436 0.30138 -0.706408
    outer loop
      vertex -2.04551 0.809874 20
      vertex -4.83484 1.91425 23
      vertex -1.92787 1.05986 20
    endloop
  endfacet
  facet normal -0.484529 -0.515964 -0.706408
    outer loop
      vertex -1.40233 -1.69513 20
      vertex -3.79064 -3.55964 23
      vertex -1.60373 -1.506 20
    endloop
  endfacet
  facet normal -0.706407 -0.0444494 -0.706409
    outer loop
      vertex -2.18265 -0.275733 20
      vertex -5.159 -0.651732 23
      vertex -2.2 0 20
    endloop
  endfacet
  facet normal 0.640438 -0.301375 -0.706408
    outer loop
      vertex 4.55679 -2.50512 23
      vertex 1.92787 -1.05986 20
      vertex 4.83484 -1.91425 23
    endloop
  endfacet
  facet normal -0.695267 0.132631 -0.706409
    outer loop
      vertex -2.18265 0.275733 20
      vertex -5.159 0.651732 23
      vertex -2.13088 0.547117 20
    endloop
  endfacet
  facet normal -0.260559 0.658101 -0.706408
    outer loop
      vertex -0.679837 2.09232 20
      vertex -2.21405 4.7051 23
      vertex -1.60689 4.94549 23
    endloop
  endfacet
  facet normal -0.34099 -0.620253 -0.706408
    outer loop
      vertex -0.936714 -1.99062 20
      vertex -2.21405 -4.7051 23
      vertex -1.17882 -1.85752 20
    endloop
  endfacet
  facet normal 0.695266 -0.132635 -0.706408
    outer loop
      vertex 5.03663 -1.29319 23
      vertex 2.13088 -0.547117 20
      vertex 5.159 -0.651732 23
    endloop
  endfacet
  facet normal -0.545363 0.451186 -0.706407
    outer loop
      vertex -1.77984 1.29313 20
      vertex -4.20689 3.05648 23
      vertex -1.60373 1.506 20
    endloop
  endfacet
  facet normal 0.673166 -0.218712 -0.706408
    outer loop
      vertex 4.83484 -1.91425 23
      vertex 2.04551 -0.809874 20
      vertex 2.13088 -0.547117 20
    endloop
  endfacet
  facet normal 0.640436 -0.30138 -0.706408
    outer loop
      vertex 4.83484 -1.91425 23
      vertex 1.92787 -1.05986 20
      vertex 2.04551 -0.809874 20
    endloop
  endfacet
  facet normal -0.176029 -0.685567 -0.706408
    outer loop
      vertex -0.412238 -2.16103 20
      vertex -0.974382 -5.10789 23
      vertex -0.679837 -2.09232 20
    endloop
  endfacet
  facet normal -0.416036 -0.572628 -0.706408
    outer loop
      vertex -2.7863 -4.3905 23
      vertex -3.3146 -4.00667 23
      vertex -1.17882 -1.85752 20
    endloop
  endfacet
  facet normal 0.706407 -0.0444494 -0.706409
    outer loop
      vertex 5.159 -0.651732 23
      vertex 2.18265 -0.275733 20
      vertex 2.2 0 20
    endloop
  endfacet
  facet normal -0.176023 0.685568 -0.706408
    outer loop
      vertex -0.679837 2.09232 20
      vertex -1.60689 4.94549 23
      vertex -0.974382 5.10789 23
    endloop
  endfacet
  facet normal -0.706408 -0.0444396 -0.706408
    outer loop
      vertex -5.159 -0.651732 23
      vertex -5.2 0 23
      vertex -2.2 0 20
    endloop
  endfacet
  facet normal -0.34099 0.620253 -0.706408
    outer loop
      vertex -1.17882 1.85752 20
      vertex -2.7863 4.3905 23
      vertex -2.21405 4.7051 23
    endloop
  endfacet
  facet normal -0.695266 0.132635 -0.706408
    outer loop
      vertex -2.13088 0.547117 20
      vertex -5.159 0.651732 23
      vertex -5.03663 1.29319 23
    endloop
  endfacet
  facet normal 0.673164 -0.218719 -0.706408
    outer loop
      vertex 4.83484 -1.91425 23
      vertex 2.13088 -0.547117 20
      vertex 5.03663 -1.29319 23
    endloop
  endfacet
  facet normal 0.706408 -0.0444396 -0.706408
    outer loop
      vertex 5.159 -0.651732 23
      vertex 2.2 0 20
      vertex 5.2 0 23
    endloop
  endfacet
  facet normal -0.695266 -0.132635 -0.706408
    outer loop
      vertex -5.03663 -1.29319 23
      vertex -5.159 -0.651732 23
      vertex -2.13088 -0.547117 20
    endloop
  endfacet
  facet normal -0.484529 0.515964 -0.706408
    outer loop
      vertex -1.60373 1.506 20
      vertex -3.79064 3.55964 23
      vertex -1.40233 1.69513 20
    endloop
  endfacet
  facet normal -0.597621 -0.379258 -0.706408
    outer loop
      vertex -4.20689 -3.05648 23
      vertex -4.55679 -2.50512 23
      vertex -1.92787 -1.05986 20
    endloop
  endfacet
  facet normal -0.695267 -0.132631 -0.706409
    outer loop
      vertex -2.13088 -0.547117 20
      vertex -5.159 -0.651732 23
      vertex -2.18265 -0.275733 20
    endloop
  endfacet
  facet normal -0.545373 -0.451171 -0.706408
    outer loop
      vertex -3.79064 -3.55964 23
      vertex -4.20689 -3.05648 23
      vertex -1.60373 -1.506 20
    endloop
  endfacet
  facet normal 0.695267 -0.132631 -0.706409
    outer loop
      vertex 5.159 -0.651732 23
      vertex 2.13088 -0.547117 20
      vertex 2.18265 -0.275733 20
    endloop
  endfacet
  facet normal 0.416038 0.572626 -0.706408
    outer loop
      vertex 1.40233 1.69513 20
      vertex 1.17882 1.85752 20
      vertex 3.3146 4.00667 23
    endloop
  endfacet
  facet normal 0.416036 0.572628 -0.706408
    outer loop
      vertex 3.3146 4.00667 23
      vertex 1.17882 1.85752 20
      vertex 2.7863 4.3905 23
    endloop
  endfacet
  facet normal -0.673164 0.218719 -0.706408
    outer loop
      vertex -2.13088 0.547117 20
      vertex -5.03663 1.29319 23
      vertex -4.83484 1.91425 23
    endloop
  endfacet
  facet normal -0.0887196 -0.702222 -0.706408
    outer loop
      vertex -0.138139 -2.19566 20
      vertex -0.974382 -5.10789 23
      vertex -0.412238 -2.16103 20
    endloop
  endfacet
  facet normal 0.597629 0.379247 -0.706407
    outer loop
      vertex 1.92787 1.05986 20
      vertex 1.77984 1.29313 20
      vertex 4.20689 3.05648 23
    endloop
  endfacet
  facet normal -0.706407 0.0444494 -0.706409
    outer loop
      vertex -2.2 0 20
      vertex -5.159 0.651732 23
      vertex -2.18265 0.275733 20
    endloop
  endfacet
  facet normal -0.34099 -0.620253 -0.706408
    outer loop
      vertex -2.21405 -4.7051 23
      vertex -2.7863 -4.3905 23
      vertex -1.17882 -1.85752 20
    endloop
  endfacet
  facet normal 0.597621 -0.379258 -0.706408
    outer loop
      vertex 4.20689 -3.05648 23
      vertex 1.92787 -1.05986 20
      vertex 4.55679 -2.50512 23
    endloop
  endfacet
  facet normal 0.416036 -0.572628 -0.706408
    outer loop
      vertex 2.7863 -4.3905 23
      vertex 1.17882 -1.85752 20
      vertex 3.3146 -4.00667 23
    endloop
  endfacet
  facet normal 0 -0.707805 -0.706408
    outer loop
      vertex -0.138139 -2.19566 20
      vertex 0.32651 -5.18974 23
      vertex -0.32651 -5.18974 23
    endloop
  endfacet
  facet normal 0 -0.707805 -0.706408
    outer loop
      vertex 0.32651 -5.18974 23
      vertex -0.138139 -2.19566 20
      vertex 0.138139 -2.19566 20
    endloop
  endfacet
  facet normal 0.176029 0.685567 -0.706408
    outer loop
      vertex 0.679837 2.09232 20
      vertex 0.412238 2.16103 20
      vertex 0.974382 5.10789 23
    endloop
  endfacet
  facet normal -0.416038 -0.572626 -0.706408
    outer loop
      vertex -1.17882 -1.85752 20
      vertex -3.3146 -4.00667 23
      vertex -1.40233 -1.69513 20
    endloop
  endfacet
  facet normal 0.0887196 -0.702222 -0.706408
    outer loop
      vertex 0.974382 -5.10789 23
      vertex 0.138139 -2.19566 20
      vertex 0.412238 -2.16103 20
    endloop
  endfacet
  facet normal -0.484525 -0.515968 -0.706408
    outer loop
      vertex -3.3146 -4.00667 23
      vertex -3.79064 -3.55964 23
      vertex -1.40233 -1.69513 20
    endloop
  endfacet
  facet normal 0.416038 -0.572626 -0.706408
    outer loop
      vertex 3.3146 -4.00667 23
      vertex 1.17882 -1.85752 20
      vertex 1.40233 -1.69513 20
    endloop
  endfacet
  facet normal -0.673166 -0.218712 -0.706408
    outer loop
      vertex -2.04551 -0.809874 20
      vertex -4.83484 -1.91425 23
      vertex -2.13088 -0.547117 20
    endloop
  endfacet
  facet normal -0.640438 -0.301375 -0.706408
    outer loop
      vertex -4.55679 -2.50512 23
      vertex -4.83484 -1.91425 23
      vertex -1.92787 -1.05986 20
    endloop
  endfacet
  facet normal 0.640436 0.30138 -0.706408
    outer loop
      vertex 2.04551 0.809874 20
      vertex 1.92787 1.05986 20
      vertex 4.83484 1.91425 23
    endloop
  endfacet
  facet normal 0.545373 0.451171 -0.706408
    outer loop
      vertex 4.20689 3.05648 23
      vertex 1.60373 1.506 20
      vertex 3.79064 3.55964 23
    endloop
  endfacet
  facet normal 0.597621 0.379258 -0.706408
    outer loop
      vertex 4.55679 2.50512 23
      vertex 1.92787 1.05986 20
      vertex 4.20689 3.05648 23
    endloop
  endfacet
  facet normal -0.26055 -0.658105 -0.706408
    outer loop
      vertex -0.679837 -2.09232 20
      vertex -2.21405 -4.7051 23
      vertex -0.936714 -1.99062 20
    endloop
  endfacet
  facet normal 0.34099 -0.620253 -0.706408
    outer loop
      vertex 2.21405 -4.7051 23
      vertex 0.936714 -1.99062 20
      vertex 1.17882 -1.85752 20
    endloop
  endfacet
  facet normal 0.484525 0.515968 -0.706408
    outer loop
      vertex 3.79064 3.55964 23
      vertex 1.40233 1.69513 20
      vertex 3.3146 4.00667 23
    endloop
  endfacet
  facet normal 0.176023 -0.685568 -0.706408
    outer loop
      vertex 0.974382 -5.10789 23
      vertex 0.679837 -2.09232 20
      vertex 1.60689 -4.94549 23
    endloop
  endfacet
  facet normal 0.0887165 0.702223 -0.706408
    outer loop
      vertex 0.974382 5.10789 23
      vertex 0.138139 2.19566 20
      vertex 0.32651 5.18974 23
    endloop
  endfacet
  facet normal 0.260559 0.658101 -0.706408
    outer loop
      vertex 2.21405 4.7051 23
      vertex 0.679837 2.09232 20
      vertex 1.60689 4.94549 23
    endloop
  endfacet
  facet normal -0.416038 0.572626 -0.706408
    outer loop
      vertex -1.40233 1.69513 20
      vertex -3.3146 4.00667 23
      vertex -1.17882 1.85752 20
    endloop
  endfacet
  facet normal 0.484529 -0.515964 -0.706408
    outer loop
      vertex 3.79064 -3.55964 23
      vertex 1.40233 -1.69513 20
      vertex 1.60373 -1.506 20
    endloop
  endfacet
  facet normal 0 0.707805 -0.706408
    outer loop
      vertex 0.138139 2.19566 20
      vertex -0.32651 5.18974 23
      vertex 0.32651 5.18974 23
    endloop
  endfacet
  facet normal 0 0.707805 -0.706408
    outer loop
      vertex -0.32651 5.18974 23
      vertex 0.138139 2.19566 20
      vertex -0.138139 2.19566 20
    endloop
  endfacet
  facet normal -0.26055 0.658105 -0.706408
    outer loop
      vertex -0.936714 1.99062 20
      vertex -2.21405 4.7051 23
      vertex -0.679837 2.09232 20
    endloop
  endfacet
  facet normal -0.0887165 -0.702223 -0.706408
    outer loop
      vertex -0.32651 -5.18974 23
      vertex -0.974382 -5.10789 23
      vertex -0.138139 -2.19566 20
    endloop
  endfacet
  facet normal 0.484529 0.515964 -0.706408
    outer loop
      vertex 1.60373 1.506 20
      vertex 1.40233 1.69513 20
      vertex 3.79064 3.55964 23
    endloop
  endfacet
  facet normal 0.176023 0.685568 -0.706408
    outer loop
      vertex 1.60689 4.94549 23
      vertex 0.679837 2.09232 20
      vertex 0.974382 5.10789 23
    endloop
  endfacet
  facet normal -0.640436 -0.30138 -0.706408
    outer loop
      vertex -1.92787 -1.05986 20
      vertex -4.83484 -1.91425 23
      vertex -2.04551 -0.809874 20
    endloop
  endfacet
  facet normal 0.484525 -0.515968 -0.706408
    outer loop
      vertex 3.3146 -4.00667 23
      vertex 1.40233 -1.69513 20
      vertex 3.79064 -3.55964 23
    endloop
  endfacet
  facet normal -0.673164 -0.218719 -0.706408
    outer loop
      vertex -4.83484 -1.91425 23
      vertex -5.03663 -1.29319 23
      vertex -2.13088 -0.547117 20
    endloop
  endfacet
  facet normal -0.416036 0.572628 -0.706408
    outer loop
      vertex -1.17882 1.85752 20
      vertex -3.3146 4.00667 23
      vertex -2.7863 4.3905 23
    endloop
  endfacet
  facet normal -0.545363 -0.451186 -0.706407
    outer loop
      vertex -1.60373 -1.506 20
      vertex -4.20689 -3.05648 23
      vertex -1.77984 -1.29313 20
    endloop
  endfacet
  facet normal -0.597629 -0.379247 -0.706407
    outer loop
      vertex -1.77984 -1.29313 20
      vertex -4.20689 -3.05648 23
      vertex -1.92787 -1.05986 20
    endloop
  endfacet
  facet normal 0.34099 0.620253 -0.706408
    outer loop
      vertex 2.7863 4.3905 23
      vertex 1.17882 1.85752 20
      vertex 2.21405 4.7051 23
    endloop
  endfacet
  facet normal -0.545373 0.451171 -0.706408
    outer loop
      vertex -1.60373 1.506 20
      vertex -4.20689 3.05648 23
      vertex -3.79064 3.55964 23
    endloop
  endfacet
  facet normal -0.176029 0.685567 -0.706408
    outer loop
      vertex -0.679837 2.09232 20
      vertex -0.974382 5.10789 23
      vertex -0.412238 2.16103 20
    endloop
  endfacet
  facet normal -0.0887196 0.702222 -0.706408
    outer loop
      vertex -0.412238 2.16103 20
      vertex -0.974382 5.10789 23
      vertex -0.138139 2.19566 20
    endloop
  endfacet
  facet normal 0.673164 0.218719 -0.706408
    outer loop
      vertex 5.03663 1.29319 23
      vertex 2.13088 0.547117 20
      vertex 4.83484 1.91425 23
    endloop
  endfacet
  facet normal -0.484525 0.515968 -0.706408
    outer loop
      vertex -1.40233 1.69513 20
      vertex -3.79064 3.55964 23
      vertex -3.3146 4.00667 23
    endloop
  endfacet
  facet normal 0.0887196 0.702222 -0.706408
    outer loop
      vertex 0.412238 2.16103 20
      vertex 0.138139 2.19566 20
      vertex 0.974382 5.10789 23
    endloop
  endfacet
  facet normal 0.34099 0.620253 -0.706408
    outer loop
      vertex 1.17882 1.85752 20
      vertex 0.936714 1.99062 20
      vertex 2.21405 4.7051 23
    endloop
  endfacet
  facet normal 0.640438 0.301375 -0.706408
    outer loop
      vertex 4.83484 1.91425 23
      vertex 1.92787 1.05986 20
      vertex 4.55679 2.50512 23
    endloop
  endfacet
  facet normal -0.640438 0.301375 -0.706408
    outer loop
      vertex -1.92787 1.05986 20
      vertex -4.83484 1.91425 23
      vertex -4.55679 2.50512 23
    endloop
  endfacet
  facet normal -0.597621 0.379258 -0.706408
    outer loop
      vertex -1.92787 1.05986 20
      vertex -4.55679 2.50512 23
      vertex -4.20689 3.05648 23
    endloop
  endfacet
  facet normal 0 0 -1
    outer loop
      vertex 2.18265 -0.275733 20
      vertex 2.18265 0.275733 20
      vertex 2.2 0 20
    endloop
  endfacet
  facet normal 0 0 -1
    outer loop
      vertex 2.13088 -0.547117 20
      vertex 2.18265 0.275733 20
      vertex 2.18265 -0.275733 20
    endloop
  endfacet
  facet normal 0 0 -1
    outer loop
      vertex 2.13088 -0.547117 20
      vertex 2.13088 0.547117 20
      vertex 2.18265 0.275733 20
    endloop
  endfacet
  facet normal 0 0 -1
    outer loop
      vertex 2.04551 -0.809874 20
      vertex 2.13088 0.547117 20
      vertex 2.13088 -0.547117 20
    endloop
  endfacet
  facet normal 0 0 -1
    outer loop
      vertex 2.04551 -0.809874 20
      vertex 2.04551 0.809874 20
      vertex 2.13088 0.547117 20
    endloop
  endfacet
  facet normal 0 0 -1
    outer loop
      vertex 1.92787 -1.05986 20
      vertex 2.04551 0.809874 20
      vertex 2.04551 -0.809874 20
    endloop
  endfacet
  facet normal 0 0 -1
    outer loop
      vertex 1.92787 -1.05986 20
      vertex 1.92787 1.05986 20
      vertex 2.04551 0.809874 20
    endloop
  endfacet
  facet normal 0 0 -1
    outer loop
      vertex 1.77984 -1.29313 20
      vertex 1.92787 1.05986 20
      vertex 1.92787 -1.05986 20
    endloop
  endfacet
  facet normal 0 0 -1
    outer loop
      vertex 1.77984 -1.29313 20
      vertex 1.77984 1.29313 20
      vertex 1.92787 1.05986 20
    endloop
  endfacet
  facet normal 0 0 -1
    outer loop
      vertex 1.60373 -1.506 20
      vertex 1.77984 1.29313 20
      vertex 1.77984 -1.29313 20
    endloop
  endfacet
  facet normal 0 0 -1
    outer loop
      vertex 1.60373 -1.506 20
      vertex 1.60373 1.506 20
      vertex 1.77984 1.29313 20
    endloop
  endfacet
  facet normal 0 0 -1
    outer loop
      vertex 1.40233 -1.69513 20
      vertex 1.60373 1.506 20
      vertex 1.60373 -1.506 20
    endloop
  endfacet
  facet normal 0 0 -1
    outer loop
      vertex 1.40233 -1.69513 20
      vertex 1.40233 1.69513 20
      vertex 1.60373 1.506 20
    endloop
  endfacet
  facet normal 0 0 -1
    outer loop
      vertex 1.17882 -1.85752 20
      vertex 1.40233 1.69513 20
      vertex 1.40233 -1.69513 20
    endloop
  endfacet
  facet normal 0 0 -1
    outer loop
      vertex 1.17882 -1.85752 20
      vertex 1.17882 1.85752 20
      vertex 1.40233 1.69513 20
    endloop
  endfacet
  facet normal 0 0 -1
    outer loop
      vertex 0.936714 -1.99062 20
      vertex 1.17882 1.85752 20
      vertex 1.17882 -1.85752 20
    endloop
  endfacet
  facet normal 0 0 -1
    outer loop
      vertex 0.936714 -1.99062 20
      vertex 0.936714 1.99062 20
      vertex 1.17882 1.85752 20
    endloop
  endfacet
  facet normal 0 0 -1
    outer loop
      vertex 0.679837 -2.09232 20
      vertex 0.936714 1.99062 20
      vertex 0.936714 -1.99062 20
    endloop
  endfacet
  facet normal 0 0 -1
    outer loop
      vertex 0.679837 -2.09232 20
      vertex 0.679837 2.09232 20
      vertex 0.936714 1.99062 20
    endloop
  endfacet
  facet normal 0 0 -1
    outer loop
      vertex 0.412238 -2.16103 20
      vertex 0.679837 2.09232 20
      vertex 0.679837 -2.09232 20
    endloop
  endfacet
  facet normal 0 0 -1
    outer loop
      vertex 0.412238 -2.16103 20
      vertex 0.412238 2.16103 20
      vertex 0.679837 2.09232 20
    endloop
  endfacet
  facet normal 0 0 -1
    outer loop
      vertex 0.138139 -2.19566 20
      vertex 0.412238 2.16103 20
      vertex 0.412238 -2.16103 20
    endloop
  endfacet
  facet normal 0 0 -1
    outer loop
      vertex 0.138139 -2.19566 20
      vertex 0.138139 2.19566 20
      vertex 0.412238 2.16103 20
    endloop
  endfacet
  facet normal 0 0 -1
    outer loop
      vertex -0.138139 -2.19566 20
      vertex 0.138139 2.19566 20
      vertex 0.138139 -2.19566 20
    endloop
  endfacet
  facet normal 0 0 -1
    outer loop
      vertex -0.138139 -2.19566 20
      vertex -0.138139 2.19566 20
      vertex 0.138139 2.19566 20
    endloop
  endfacet
  facet normal 0 0 -1
    outer loop
      vertex -0.412238 -2.16103 20
      vertex -0.138139 2.19566 20
      vertex -0.138139 -2.19566 20
    endloop
  endfacet
  facet normal 0 0 -1
    outer loop
      vertex -0.412238 -2.16103 20
      vertex -0.412238 2.16103 20
      vertex -0.138139 2.19566 20
    endloop
  endfacet
  facet normal 0 0 -1
    outer loop
      vertex -0.679837 -2.09232 20
      vertex -0.412238 2.16103 20
      vertex -0.412238 -2.16103 20
    endloop
  endfacet
  facet normal 0 0 -1
    outer loop
      vertex -0.679837 -2.09232 20
      vertex -0.679837 2.09232 20
      vertex -0.412238 2.16103 20
    endloop
  endfacet
  facet normal 0 0 -1
    outer loop
      vertex -0.936714 -1.99062 20
      vertex -0.679837 2.09232 20
      vertex -0.679837 -2.09232 20
    endloop
  endfacet
  facet normal 0 0 -1
    outer loop
      vertex -0.936714 -1.99062 20
      vertex -0.936714 1.99062 20
      vertex -0.679837 2.09232 20
    endloop
  endfacet
  facet normal 0 0 -1
    outer loop
      vertex -1.17882 -1.85752 20
      vertex -0.936714 1.99062 20
      vertex -0.936714 -1.99062 20
    endloop
  endfacet
  facet normal 0 0 -1
    outer loop
      vertex -1.17882 -1.85752 20
      vertex -1.17882 1.85752 20
      vertex -0.936714 1.99062 20
    endloop
  endfacet
  facet normal 0 0 -1
    outer loop
      vertex -1.40233 -1.69513 20
      vertex -1.17882 1.85752 20
      vertex -1.17882 -1.85752 20
    endloop
  endfacet
  facet normal 0 0 -1
    outer loop
      vertex -1.40233 -1.69513 20
      vertex -1.40233 1.69513 20
      vertex -1.17882 1.85752 20
    endloop
  endfacet
  facet normal 0 0 -1
    outer loop
      vertex -1.60373 -1.506 20
      vertex -1.40233 1.69513 20
      vertex -1.40233 -1.69513 20
    endloop
  endfacet
  facet normal 0 0 -1
    outer loop
      vertex -1.60373 -1.506 20
      vertex -1.60373 1.506 20
      vertex -1.40233 1.69513 20
    endloop
  endfacet
  facet normal 0 0 -1
    outer loop
      vertex -1.77984 -1.29313 20
      vertex -1.60373 1.506 20
      vertex -1.60373 -1.506 20
    endloop
  endfacet
  facet normal 0 0 -1
    outer loop
      vertex -1.77984 -1.29313 20
      vertex -1.77984 1.29313 20
      vertex -1.60373 1.506 20
    endloop
  endfacet
  facet normal 0 0 -1
    outer loop
      vertex -1.92787 -1.05986 20
      vertex -1.77984 1.29313 20
      vertex -1.77984 -1.29313 20
    endloop
  endfacet
  facet normal 0 0 -1
    outer loop
      vertex -1.92787 -1.05986 20
      vertex -1.92787 1.05986 20
      vertex -1.77984 1.29313 20
    endloop
  endfacet
  facet normal 0 0 -1
    outer loop
      vertex -2.04551 -0.809874 20
      vertex -1.92787 1.05986 20
      vertex -1.92787 -1.05986 20
    endloop
  endfacet
  facet normal 0 0 -1
    outer loop
      vertex -2.04551 -0.809874 20
      vertex -2.04551 0.809874 20
      vertex -1.92787 1.05986 20
    endloop
  endfacet
  facet normal 0 0 -1
    outer loop
      vertex -2.13088 -0.547117 20
      vertex -2.04551 0.809874 20
      vertex -2.04551 -0.809874 20
    endloop
  endfacet
  facet normal 0 0 -1
    outer loop
      vertex -2.13088 -0.547117 20
      vertex -2.13088 0.547117 20
      vertex -2.04551 0.809874 20
    endloop
  endfacet
  facet normal 0 0 -1
    outer loop
      vertex -2.18265 -0.275733 20
      vertex -2.13088 0.547117 20
      vertex -2.13088 -0.547117 20
    endloop
  endfacet
  facet normal 0 0 -1
    outer loop
      vertex -2.18265 -0.275733 20
      vertex -2.18265 0.275733 20
      vertex -2.13088 0.547117 20
    endloop
  endfacet
  facet normal 0 -0 -1
    outer loop
      vertex -2.18265 0.275733 20
      vertex -2.18265 -0.275733 20
      vertex -2.2 0 20
    endloop
  endfacet
  facet normal 0.545363 0.451186 -0.706407
    outer loop
      vertex 1.77984 1.29313 20
      vertex 1.60373 1.506 20
      vertex 4.20689 3.05648 23
    endloop
  endfacet
  facet normal -0.34099 0.620253 -0.706408
    outer loop
      vertex -1.17882 1.85752 20
      vertex -2.21405 4.7051 23
      vertex -0.936714 1.99062 20
    endloop
  endfacet
  facet normal 0.695266 0.132635 -0.706408
    outer loop
      vertex 5.159 0.651732 23
      vertex 2.13088 0.547117 20
      vertex 5.03663 1.29319 23
    endloop
  endfacet
  facet normal -0.673166 0.218712 -0.706408
    outer loop
      vertex -2.13088 0.547117 20
      vertex -4.83484 1.91425 23
      vertex -2.04551 0.809874 20
    endloop
  endfacet
  facet normal 0.695267 0.132631 -0.706409
    outer loop
      vertex 2.18265 0.275733 20
      vertex 2.13088 0.547117 20
      vertex 5.159 0.651732 23
    endloop
  endfacet
  facet normal 0.26055 0.658105 -0.706408
    outer loop
      vertex 0.936714 1.99062 20
      vertex 0.679837 2.09232 20
      vertex 2.21405 4.7051 23
    endloop
  endfacet
  facet normal 0.673166 0.218712 -0.706408
    outer loop
      vertex 2.13088 0.547117 20
      vertex 2.04551 0.809874 20
      vertex 4.83484 1.91425 23
    endloop
  endfacet
  facet normal 0.982286 0.187389 0
    outer loop
      vertex 5.159 0.651732 33
      vertex 5.03663 1.29319 23
      vertex 5.03663 1.29319 33
    endloop
  endfacet
  facet normal 0.982286 0.187389 0
    outer loop
      vertex 5.03663 1.29319 23
      vertex 5.159 0.651732 33
      vertex 5.159 0.651732 23
    endloop
  endfacet
  facet normal 0.998027 0.0627852 0
    outer loop
      vertex 5.2 0 33
      vertex 5.159 0.651732 23
      vertex 5.159 0.651732 33
    endloop
  endfacet
  facet normal 0.998027 0.0627852 0
    outer loop
      vertex 5.159 0.651732 23
      vertex 5.2 0 33
      vertex 5.2 0 23
    endloop
  endfacet
  facet normal 0.951059 0.309011 0
    outer loop
      vertex 5.03663 1.29319 33
      vertex 4.83484 1.91425 23
      vertex 4.83484 1.91425 33
    endloop
  endfacet
  facet normal 0.951059 0.309011 0
    outer loop
      vertex 4.83484 1.91425 23
      vertex 5.03663 1.29319 33
      vertex 5.03663 1.29319 23
    endloop
  endfacet
  facet normal -0.951059 -0.309011 0
    outer loop
      vertex -4.83484 -1.91425 23
      vertex -5.03663 -1.29319 33
      vertex -5.03663 -1.29319 23
    endloop
  endfacet
  facet normal -0.951059 -0.309011 0
    outer loop
      vertex -5.03663 -1.29319 33
      vertex -4.83484 -1.91425 23
      vertex -4.83484 -1.91425 33
    endloop
  endfacet
  facet normal -0.12534 0.992114 0
    outer loop
      vertex -0.32651 5.18974 23
      vertex -0.974382 5.10789 33
      vertex -0.32651 5.18974 33
    endloop
  endfacet
  facet normal -0.12534 0.992114 0
    outer loop
      vertex -0.974382 5.10789 33
      vertex -0.32651 5.18974 23
      vertex -0.974382 5.10789 23
    endloop
  endfacet
  facet normal 0.368122 0.929777 -0
    outer loop
      vertex 2.21405 4.7051 23
      vertex 1.60689 4.94549 33
      vertex 2.21405 4.7051 33
    endloop
  endfacet
  facet normal 0.368122 0.929777 0
    outer loop
      vertex 1.60689 4.94549 33
      vertex 2.21405 4.7051 23
      vertex 1.60689 4.94549 23
    endloop
  endfacet
  facet normal 0.12534 0.992114 -0
    outer loop
      vertex 0.974382 5.10789 23
      vertex 0.32651 5.18974 33
      vertex 0.974382 5.10789 33
    endloop
  endfacet
  facet normal 0.12534 0.992114 0
    outer loop
      vertex 0.32651 5.18974 33
      vertex 0.974382 5.10789 23
      vertex 0.32651 5.18974 23
    endloop
  endfacet
  facet normal 0.684546 -0.72897 0
    outer loop
      vertex 3.3146 -4.00667 23
      vertex 3.79064 -3.55964 33
      vertex 3.3146 -4.00667 33
    endloop
  endfacet
  facet normal 0.684546 -0.72897 0
    outer loop
      vertex 3.79064 -3.55964 33
      vertex 3.3146 -4.00667 23
      vertex 3.79064 -3.55964 23
    endloop
  endfacet
  facet normal 0.84433 0.535823 0
    outer loop
      vertex 4.55679 2.50512 33
      vertex 4.20689 3.05648 23
      vertex 4.20689 3.05648 33
    endloop
  endfacet
  facet normal 0.84433 0.535823 0
    outer loop
      vertex 4.20689 3.05648 23
      vertex 4.55679 2.50512 33
      vertex 4.55679 2.50512 23
    endloop
  endfacet
  facet normal 0.904823 0.425789 0
    outer loop
      vertex 4.83484 1.91425 33
      vertex 4.55679 2.50512 23
      vertex 4.55679 2.50512 33
    endloop
  endfacet
  facet normal 0.904823 0.425789 0
    outer loop
      vertex 4.55679 2.50512 23
      vertex 4.83484 1.91425 33
      vertex 4.83484 1.91425 23
    endloop
  endfacet
  facet normal -0.248689 0.968583 0
    outer loop
      vertex -0.974382 5.10789 23
      vertex -1.60689 4.94549 33
      vertex -0.974382 5.10789 33
    endloop
  endfacet
  facet normal -0.248689 0.968583 0
    outer loop
      vertex -1.60689 4.94549 33
      vertex -0.974382 5.10789 23
      vertex -1.60689 4.94549 23
    endloop
  endfacet
  facet normal -0.982286 0.187389 0
    outer loop
      vertex -5.159 0.651732 23
      vertex -5.03663 1.29319 33
      vertex -5.03663 1.29319 23
    endloop
  endfacet
  facet normal -0.982286 0.187389 0
    outer loop
      vertex -5.03663 1.29319 33
      vertex -5.159 0.651732 23
      vertex -5.159 0.651732 33
    endloop
  endfacet
  facet normal -0.248689 -0.968583 0
    outer loop
      vertex -1.60689 -4.94549 23
      vertex -0.974382 -5.10789 33
      vertex -1.60689 -4.94549 33
    endloop
  endfacet
  facet normal -0.248689 -0.968583 -0
    outer loop
      vertex -0.974382 -5.10789 33
      vertex -1.60689 -4.94549 23
      vertex -0.974382 -5.10789 23
    endloop
  endfacet
  facet normal 0.951059 -0.309011 0
    outer loop
      vertex 4.83484 -1.91425 33
      vertex 5.03663 -1.29319 23
      vertex 5.03663 -1.29319 33
    endloop
  endfacet
  facet normal 0.951059 -0.309011 0
    outer loop
      vertex 5.03663 -1.29319 23
      vertex 4.83484 -1.91425 33
      vertex 4.83484 -1.91425 23
    endloop
  endfacet
  facet normal -0.684546 0.72897 0
    outer loop
      vertex -3.3146 4.00667 23
      vertex -3.79064 3.55964 33
      vertex -3.3146 4.00667 33
    endloop
  endfacet
  facet normal -0.684546 0.72897 0
    outer loop
      vertex -3.79064 3.55964 33
      vertex -3.3146 4.00667 23
      vertex -3.79064 3.55964 23
    endloop
  endfacet
  facet normal -0.368122 -0.929777 0
    outer loop
      vertex -2.21405 -4.7051 23
      vertex -1.60689 -4.94549 33
      vertex -2.21405 -4.7051 33
    endloop
  endfacet
  facet normal -0.368122 -0.929777 -0
    outer loop
      vertex -1.60689 -4.94549 33
      vertex -2.21405 -4.7051 23
      vertex -1.60689 -4.94549 23
    endloop
  endfacet
  facet normal 0.587783 0.809019 -0
    outer loop
      vertex 3.3146 4.00667 23
      vertex 2.7863 4.3905 33
      vertex 3.3146 4.00667 33
    endloop
  endfacet
  facet normal 0.587783 0.809019 0
    outer loop
      vertex 2.7863 4.3905 33
      vertex 3.3146 4.00667 23
      vertex 2.7863 4.3905 23
    endloop
  endfacet
  facet normal 0.684546 0.72897 -0
    outer loop
      vertex 3.79064 3.55964 23
      vertex 3.3146 4.00667 33
      vertex 3.79064 3.55964 33
    endloop
  endfacet
  facet normal 0.684546 0.72897 0
    outer loop
      vertex 3.3146 4.00667 33
      vertex 3.79064 3.55964 23
      vertex 3.3146 4.00667 23
    endloop
  endfacet
  facet normal 0.248689 -0.968583 0
    outer loop
      vertex 0.974382 -5.10789 23
      vertex 1.60689 -4.94549 33
      vertex 0.974382 -5.10789 33
    endloop
  endfacet
  facet normal 0.248689 -0.968583 0
    outer loop
      vertex 1.60689 -4.94549 33
      vertex 0.974382 -5.10789 23
      vertex 1.60689 -4.94549 23
    endloop
  endfacet
  facet normal -0.904823 0.425789 0
    outer loop
      vertex -4.83484 1.91425 23
      vertex -4.55679 2.50512 33
      vertex -4.55679 2.50512 23
    endloop
  endfacet
  facet normal -0.904823 0.425789 0
    outer loop
      vertex -4.55679 2.50512 33
      vertex -4.83484 1.91425 23
      vertex -4.83484 1.91425 33
    endloop
  endfacet
  facet normal -0.481757 -0.876305 0
    outer loop
      vertex -2.7863 -4.3905 23
      vertex -2.21405 -4.7051 33
      vertex -2.7863 -4.3905 33
    endloop
  endfacet
  facet normal -0.481757 -0.876305 -0
    outer loop
      vertex -2.21405 -4.7051 33
      vertex -2.7863 -4.3905 23
      vertex -2.21405 -4.7051 23
    endloop
  endfacet
  facet normal -0.587783 0.809019 0
    outer loop
      vertex -2.7863 4.3905 23
      vertex -3.3146 4.00667 33
      vertex -2.7863 4.3905 33
    endloop
  endfacet
  facet normal -0.587783 0.809019 0
    outer loop
      vertex -3.3146 4.00667 33
      vertex -2.7863 4.3905 23
      vertex -3.3146 4.00667 23
    endloop
  endfacet
  facet normal -0.368122 0.929777 0
    outer loop
      vertex -1.60689 4.94549 23
      vertex -2.21405 4.7051 33
      vertex -1.60689 4.94549 33
    endloop
  endfacet
  facet normal -0.368122 0.929777 0
    outer loop
      vertex -2.21405 4.7051 33
      vertex -1.60689 4.94549 23
      vertex -2.21405 4.7051 23
    endloop
  endfacet
  facet normal -0.481757 0.876305 0
    outer loop
      vertex -2.21405 4.7051 23
      vertex -2.7863 4.3905 33
      vertex -2.21405 4.7051 33
    endloop
  endfacet
  facet normal -0.481757 0.876305 0
    outer loop
      vertex -2.7863 4.3905 33
      vertex -2.21405 4.7051 23
      vertex -2.7863 4.3905 23
    endloop
  endfacet
  facet normal 0.904823 -0.425789 0
    outer loop
      vertex 4.55679 -2.50512 33
      vertex 4.83484 -1.91425 23
      vertex 4.83484 -1.91425 33
    endloop
  endfacet
  facet normal 0.904823 -0.425789 0
    outer loop
      vertex 4.83484 -1.91425 23
      vertex 4.55679 -2.50512 33
      vertex 4.55679 -2.50512 23
    endloop
  endfacet
  facet normal 0.982286 -0.187389 0
    outer loop
      vertex 5.03663 -1.29319 33
      vertex 5.159 -0.651732 23
      vertex 5.159 -0.651732 33
    endloop
  endfacet
  facet normal 0.982286 -0.187389 0
    outer loop
      vertex 5.159 -0.651732 23
      vertex 5.03663 -1.29319 33
      vertex 5.03663 -1.29319 23
    endloop
  endfacet
  facet normal -0.951059 0.309011 0
    outer loop
      vertex -5.03663 1.29319 23
      vertex -4.83484 1.91425 33
      vertex -4.83484 1.91425 23
    endloop
  endfacet
  facet normal -0.951059 0.309011 0
    outer loop
      vertex -4.83484 1.91425 33
      vertex -5.03663 1.29319 23
      vertex -5.03663 1.29319 33
    endloop
  endfacet
  facet normal -0.84433 -0.535823 0
    outer loop
      vertex -4.20689 -3.05648 23
      vertex -4.55679 -2.50512 33
      vertex -4.55679 -2.50512 23
    endloop
  endfacet
  facet normal -0.84433 -0.535823 0
    outer loop
      vertex -4.55679 -2.50512 33
      vertex -4.20689 -3.05648 23
      vertex -4.20689 -3.05648 33
    endloop
  endfacet
  facet normal -0.770513 0.637424 0
    outer loop
      vertex -4.20689 3.05648 23
      vertex -3.79064 3.55964 33
      vertex -3.79064 3.55964 23
    endloop
  endfacet
  facet normal -0.770513 0.637424 0
    outer loop
      vertex -3.79064 3.55964 33
      vertex -4.20689 3.05648 23
      vertex -4.20689 3.05648 33
    endloop
  endfacet
  facet normal 0.12534 -0.992114 0
    outer loop
      vertex 0.32651 -5.18974 23
      vertex 0.974382 -5.10789 33
      vertex 0.32651 -5.18974 33
    endloop
  endfacet
  facet normal 0.12534 -0.992114 0
    outer loop
      vertex 0.974382 -5.10789 33
      vertex 0.32651 -5.18974 23
      vertex 0.974382 -5.10789 23
    endloop
  endfacet
  facet normal 0 0 1
    outer loop
      vertex 5.159 0.651732 33
      vertex 5.159 -0.651732 33
      vertex 5.2 0 33
    endloop
  endfacet
  facet normal 0 0 1
    outer loop
      vertex 5.03663 1.29319 33
      vertex 5.159 -0.651732 33
      vertex 5.159 0.651732 33
    endloop
  endfacet
  facet normal 0 0 1
    outer loop
      vertex 5.03663 1.29319 33
      vertex 5.03663 -1.29319 33
      vertex 5.159 -0.651732 33
    endloop
  endfacet
  facet normal 0 0 1
    outer loop
      vertex 4.83484 1.91425 33
      vertex 5.03663 -1.29319 33
      vertex 5.03663 1.29319 33
    endloop
  endfacet
  facet normal 0 0 1
    outer loop
      vertex 4.83484 1.91425 33
      vertex 4.83484 -1.91425 33
      vertex 5.03663 -1.29319 33
    endloop
  endfacet
  facet normal 0 0 1
    outer loop
      vertex 4.55679 2.50512 33
      vertex 4.83484 -1.91425 33
      vertex 4.83484 1.91425 33
    endloop
  endfacet
  facet normal 0 0 1
    outer loop
      vertex 4.55679 2.50512 33
      vertex 4.55679 -2.50512 33
      vertex 4.83484 -1.91425 33
    endloop
  endfacet
  facet normal 0 0 1
    outer loop
      vertex 4.20689 3.05648 33
      vertex 4.55679 -2.50512 33
      vertex 4.55679 2.50512 33
    endloop
  endfacet
  facet normal 0 0 1
    outer loop
      vertex 4.20689 3.05648 33
      vertex 4.20689 -3.05648 33
      vertex 4.55679 -2.50512 33
    endloop
  endfacet
  facet normal 0 0 1
    outer loop
      vertex 3.79064 3.55964 33
      vertex 4.20689 -3.05648 33
      vertex 4.20689 3.05648 33
    endloop
  endfacet
  facet normal 0 0 1
    outer loop
      vertex 3.79064 3.55964 33
      vertex 3.79064 -3.55964 33
      vertex 4.20689 -3.05648 33
    endloop
  endfacet
  facet normal 0 0 1
    outer loop
      vertex 3.3146 4.00667 33
      vertex 3.79064 -3.55964 33
      vertex 3.79064 3.55964 33
    endloop
  endfacet
  facet normal 0 0 1
    outer loop
      vertex 3.3146 4.00667 33
      vertex 3.3146 -4.00667 33
      vertex 3.79064 -3.55964 33
    endloop
  endfacet
  facet normal 0 0 1
    outer loop
      vertex 2.7863 4.3905 33
      vertex 3.3146 -4.00667 33
      vertex 3.3146 4.00667 33
    endloop
  endfacet
  facet normal 0 0 1
    outer loop
      vertex 2.7863 4.3905 33
      vertex 2.7863 -4.3905 33
      vertex 3.3146 -4.00667 33
    endloop
  endfacet
  facet normal 0 0 1
    outer loop
      vertex 2.21405 4.7051 33
      vertex 2.7863 -4.3905 33
      vertex 2.7863 4.3905 33
    endloop
  endfacet
  facet normal 0 0 1
    outer loop
      vertex 2.21405 4.7051 33
      vertex 2.21405 -4.7051 33
      vertex 2.7863 -4.3905 33
    endloop
  endfacet
  facet normal 0 0 1
    outer loop
      vertex 1.60689 4.94549 33
      vertex 2.21405 -4.7051 33
      vertex 2.21405 4.7051 33
    endloop
  endfacet
  facet normal 0 0 1
    outer loop
      vertex 1.60689 4.94549 33
      vertex 1.60689 -4.94549 33
      vertex 2.21405 -4.7051 33
    endloop
  endfacet
  facet normal 0 0 1
    outer loop
      vertex 0.974382 5.10789 33
      vertex 1.60689 -4.94549 33
      vertex 1.60689 4.94549 33
    endloop
  endfacet
  facet normal 0 0 1
    outer loop
      vertex 0.974382 5.10789 33
      vertex 0.974382 -5.10789 33
      vertex 1.60689 -4.94549 33
    endloop
  endfacet
  facet normal 0 0 1
    outer loop
      vertex 0.32651 5.18974 33
      vertex 0.974382 -5.10789 33
      vertex 0.974382 5.10789 33
    endloop
  endfacet
  facet normal 0 0 1
    outer loop
      vertex 0.32651 5.18974 33
      vertex 0.32651 -5.18974 33
      vertex 0.974382 -5.10789 33
    endloop
  endfacet
  facet normal -0 0 1
    outer loop
      vertex -0.32651 5.18974 33
      vertex 0.32651 -5.18974 33
      vertex 0.32651 5.18974 33
    endloop
  endfacet
  facet normal 0 0 1
    outer loop
      vertex -0.32651 5.18974 33
      vertex -0.32651 -5.18974 33
      vertex 0.32651 -5.18974 33
    endloop
  endfacet
  facet normal -0 0 1
    outer loop
      vertex -0.974382 5.10789 33
      vertex -0.32651 -5.18974 33
      vertex -0.32651 5.18974 33
    endloop
  endfacet
  facet normal 0 0 1
    outer loop
      vertex -0.974382 5.10789 33
      vertex -0.974382 -5.10789 33
      vertex -0.32651 -5.18974 33
    endloop
  endfacet
  facet normal -0 0 1
    outer loop
      vertex -1.60689 4.94549 33
      vertex -0.974382 -5.10789 33
      vertex -0.974382 5.10789 33
    endloop
  endfacet
  facet normal 0 0 1
    outer loop
      vertex -1.60689 4.94549 33
      vertex -1.60689 -4.94549 33
      vertex -0.974382 -5.10789 33
    endloop
  endfacet
  facet normal -0 0 1
    outer loop
      vertex -2.21405 4.7051 33
      vertex -1.60689 -4.94549 33
      vertex -1.60689 4.94549 33
    endloop
  endfacet
  facet normal 0 0 1
    outer loop
      vertex -2.21405 4.7051 33
      vertex -2.21405 -4.7051 33
      vertex -1.60689 -4.94549 33
    endloop
  endfacet
  facet normal -0 0 1
    outer loop
      vertex -2.7863 4.3905 33
      vertex -2.21405 -4.7051 33
      vertex -2.21405 4.7051 33
    endloop
  endfacet
  facet normal 0 0 1
    outer loop
      vertex -2.7863 4.3905 33
      vertex -2.7863 -4.3905 33
      vertex -2.21405 -4.7051 33
    endloop
  endfacet
  facet normal -0 0 1
    outer loop
      vertex -3.3146 4.00667 33
      vertex -2.7863 -4.3905 33
      vertex -2.7863 4.3905 33
    endloop
  endfacet
  facet normal 0 0 1
    outer loop
      vertex -3.3146 4.00667 33
      vertex -3.3146 -4.00667 33
      vertex -2.7863 -4.3905 33
    endloop
  endfacet
  facet normal -0 0 1
    outer loop
      vertex -3.79064 3.55964 33
      vertex -3.3146 -4.00667 33
      vertex -3.3146 4.00667 33
    endloop
  endfacet
  facet normal 0 0 1
    outer loop
      vertex -3.79064 3.55964 33
      vertex -3.79064 -3.55964 33
      vertex -3.3146 -4.00667 33
    endloop
  endfacet
  facet normal -0 0 1
    outer loop
      vertex -4.20689 3.05648 33
      vertex -3.79064 -3.55964 33
      vertex -3.79064 3.55964 33
    endloop
  endfacet
  facet normal 0 0 1
    outer loop
      vertex -4.20689 3.05648 33
      vertex -4.20689 -3.05648 33
      vertex -3.79064 -3.55964 33
    endloop
  endfacet
  facet normal -0 0 1
    outer loop
      vertex -4.55679 2.50512 33
      vertex -4.20689 -3.05648 33
      vertex -4.20689 3.05648 33
    endloop
  endfacet
  facet normal 0 0 1
    outer loop
      vertex -4.55679 2.50512 33
      vertex -4.55679 -2.50512 33
      vertex -4.20689 -3.05648 33
    endloop
  endfacet
  facet normal -0 0 1
    outer loop
      vertex -4.83484 1.91425 33
      vertex -4.55679 -2.50512 33
      vertex -4.55679 2.50512 33
    endloop
  endfacet
  facet normal 0 0 1
    outer loop
      vertex -4.83484 1.91425 33
      vertex -4.83484 -1.91425 33
      vertex -4.55679 -2.50512 33
    endloop
  endfacet
  facet normal -0 0 1
    outer loop
      vertex -5.03663 1.29319 33
      vertex -4.83484 -1.91425 33
      vertex -4.83484 1.91425 33
    endloop
  endfacet
  facet normal 0 0 1
    outer loop
      vertex -5.03663 1.29319 33
      vertex -5.03663 -1.29319 33
      vertex -4.83484 -1.91425 33
    endloop
  endfacet
  facet normal -0 0 1
    outer loop
      vertex -5.159 0.651732 33
      vertex -5.03663 -1.29319 33
      vertex -5.03663 1.29319 33
    endloop
  endfacet
  facet normal 0 0 1
    outer loop
      vertex -5.159 0.651732 33
      vertex -5.159 -0.651732 33
      vertex -5.03663 -1.29319 33
    endloop
  endfacet
  facet normal 0 -0 1
    outer loop
      vertex -5.159 -0.651732 33
      vertex -5.159 0.651732 33
      vertex -5.2 0 33
    endloop
  endfacet
  facet normal -0.587783 -0.809019 0
    outer loop
      vertex -3.3146 -4.00667 23
      vertex -2.7863 -4.3905 33
      vertex -3.3146 -4.00667 33
    endloop
  endfacet
  facet normal -0.587783 -0.809019 -0
    outer loop
      vertex -2.7863 -4.3905 33
      vertex -3.3146 -4.00667 23
      vertex -2.7863 -4.3905 23
    endloop
  endfacet
  facet normal -0.684546 -0.72897 0
    outer loop
      vertex -3.79064 -3.55964 23
      vertex -3.3146 -4.00667 33
      vertex -3.79064 -3.55964 33
    endloop
  endfacet
  facet normal -0.684546 -0.72897 -0
    outer loop
      vertex -3.3146 -4.00667 33
      vertex -3.79064 -3.55964 23
      vertex -3.3146 -4.00667 23
    endloop
  endfacet
  facet normal 0.998027 -0.0627852 0
    outer loop
      vertex 5.159 -0.651732 33
      vertex 5.2 0 23
      vertex 5.2 0 33
    endloop
  endfacet
  facet normal 0.998027 -0.0627852 0
    outer loop
      vertex 5.2 0 23
      vertex 5.159 -0.651732 33
      vertex 5.159 -0.651732 23
    endloop
  endfacet
  facet normal -0.904823 -0.425789 0
    outer loop
      vertex -4.55679 -2.50512 23
      vertex -4.83484 -1.91425 33
      vertex -4.83484 -1.91425 23
    endloop
  endfacet
  facet normal -0.904823 -0.425789 0
    outer loop
      vertex -4.83484 -1.91425 33
      vertex -4.55679 -2.50512 23
      vertex -4.55679 -2.50512 33
    endloop
  endfacet
  facet normal 0 -1 0
    outer loop
      vertex -0.32651 -5.18974 23
      vertex 0.32651 -5.18974 33
      vertex -0.32651 -5.18974 33
    endloop
  endfacet
  facet normal 0 -1 -0
    outer loop
      vertex 0.32651 -5.18974 33
      vertex -0.32651 -5.18974 23
      vertex 0.32651 -5.18974 23
    endloop
  endfacet
  facet normal -0.770513 -0.637424 0
    outer loop
      vertex -3.79064 -3.55964 23
      vertex -4.20689 -3.05648 33
      vertex -4.20689 -3.05648 23
    endloop
  endfacet
  facet normal -0.770513 -0.637424 0
    outer loop
      vertex -4.20689 -3.05648 33
      vertex -3.79064 -3.55964 23
      vertex -3.79064 -3.55964 33
    endloop
  endfacet
  facet normal -0.998027 0.0627852 0
    outer loop
      vertex -5.2 0 23
      vertex -5.159 0.651732 33
      vertex -5.159 0.651732 23
    endloop
  endfacet
  facet normal -0.998027 0.0627852 0
    outer loop
      vertex -5.159 0.651732 33
      vertex -5.2 0 23
      vertex -5.2 0 33
    endloop
  endfacet
  facet normal 0.368122 -0.929777 0
    outer loop
      vertex 1.60689 -4.94549 23
      vertex 2.21405 -4.7051 33
      vertex 1.60689 -4.94549 33
    endloop
  endfacet
  facet normal 0.368122 -0.929777 0
    outer loop
      vertex 2.21405 -4.7051 33
      vertex 1.60689 -4.94549 23
      vertex 2.21405 -4.7051 23
    endloop
  endfacet
  facet normal -0.982286 -0.187389 0
    outer loop
      vertex -5.03663 -1.29319 23
      vertex -5.159 -0.651732 33
      vertex -5.159 -0.651732 23
    endloop
  endfacet
  facet normal -0.982286 -0.187389 0
    outer loop
      vertex -5.159 -0.651732 33
      vertex -5.03663 -1.29319 23
      vertex -5.03663 -1.29319 33
    endloop
  endfacet
  facet normal 0 1 -0
    outer loop
      vertex 0.32651 5.18974 23
      vertex -0.32651 5.18974 33
      vertex 0.32651 5.18974 33
    endloop
  endfacet
  facet normal 0 1 0
    outer loop
      vertex -0.32651 5.18974 33
      vertex 0.32651 5.18974 23
      vertex -0.32651 5.18974 23
    endloop
  endfacet
  facet normal 0.481757 0.876305 -0
    outer loop
      vertex 2.7863 4.3905 23
      vertex 2.21405 4.7051 33
      vertex 2.7863 4.3905 33
    endloop
  endfacet
  facet normal 0.481757 0.876305 0
    outer loop
      vertex 2.21405 4.7051 33
      vertex 2.7863 4.3905 23
      vertex 2.21405 4.7051 23
    endloop
  endfacet
  facet normal 0.770513 0.637424 0
    outer loop
      vertex 4.20689 3.05648 33
      vertex 3.79064 3.55964 23
      vertex 3.79064 3.55964 33
    endloop
  endfacet
  facet normal 0.770513 0.637424 0
    outer loop
      vertex 3.79064 3.55964 23
      vertex 4.20689 3.05648 33
      vertex 4.20689 3.05648 23
    endloop
  endfacet
  facet normal 0.84433 -0.535823 0
    outer loop
      vertex 4.20689 -3.05648 33
      vertex 4.55679 -2.50512 23
      vertex 4.55679 -2.50512 33
    endloop
  endfacet
  facet normal 0.84433 -0.535823 0
    outer loop
      vertex 4.55679 -2.50512 23
      vertex 4.20689 -3.05648 33
      vertex 4.20689 -3.05648 23
    endloop
  endfacet
  facet normal 0.481757 -0.876305 0
    outer loop
      vertex 2.21405 -4.7051 23
      vertex 2.7863 -4.3905 33
      vertex 2.21405 -4.7051 33
    endloop
  endfacet
  facet normal 0.481757 -0.876305 0
    outer loop
      vertex 2.7863 -4.3905 33
      vertex 2.21405 -4.7051 23
      vertex 2.7863 -4.3905 23
    endloop
  endfacet
  facet normal 0.248689 0.968583 -0
    outer loop
      vertex 1.60689 4.94549 23
      vertex 0.974382 5.10789 33
      vertex 1.60689 4.94549 33
    endloop
  endfacet
  facet normal 0.248689 0.968583 0
    outer loop
      vertex 0.974382 5.10789 33
      vertex 1.60689 4.94549 23
      vertex 0.974382 5.10789 23
    endloop
  endfacet
  facet normal 0.587783 -0.809019 0
    outer loop
      vertex 2.7863 -4.3905 23
      vertex 3.3146 -4.00667 33
      vertex 2.7863 -4.3905 33
    endloop
  endfacet
  facet normal 0.587783 -0.809019 0
    outer loop
      vertex 3.3146 -4.00667 33
      vertex 2.7863 -4.3905 23
      vertex 3.3146 -4.00667 23
    endloop
  endfacet
  facet normal -0.998027 -0.0627852 0
    outer loop
      vertex -5.159 -0.651732 23
      vertex -5.2 0 33
      vertex -5.2 0 23
    endloop
  endfacet
  facet normal -0.998027 -0.0627852 0
    outer loop
      vertex -5.2 0 33
      vertex -5.159 -0.651732 23
      vertex -5.159 -0.651732 33
    endloop
  endfacet
  facet normal -0.12534 -0.992114 0
    outer loop
      vertex -0.974382 -5.10789 23
      vertex -0.32651 -5.18974 33
      vertex -0.974382 -5.10789 33
    endloop
  endfacet
  facet normal -0.12534 -0.992114 -0
    outer loop
      vertex -0.32651 -5.18974 33
      vertex -0.974382 -5.10789 23
      vertex -0.32651 -5.18974 23
    endloop
  endfacet
  facet normal 0.770513 -0.637424 0
    outer loop
      vertex 3.79064 -3.55964 33
      vertex 4.20689 -3.05648 23
      vertex 4.20689 -3.05648 33
    endloop
  endfacet
  facet normal 0.770513 -0.637424 0
    outer loop
      vertex 4.20689 -3.05648 23
      vertex 3.79064 -3.55964 33
      vertex 3.79064 -3.55964 23
    endloop
  endfacet
  facet normal -0.84433 0.535823 0
    outer loop
      vertex -4.55679 2.50512 23
      vertex -4.20689 3.05648 33
      vertex -4.20689 3.05648 23
    endloop
  endfacet
  facet normal -0.84433 0.535823 0
    outer loop
      vertex -4.20689 3.05648 33
      vertex -4.55679 2.50512 23
      vertex -4.55679 2.50512 33
    endloop
  endfacet
endsolid OpenSCAD_Model
