  0
SECTION
  2
BLOCKS
  0
ENDSEC
  0
SECTION
  2
ENTITIES
  0
LINE
  8
0
 10
75.6267
 20
-68.9606
 11
76.2435
 21
-68.8429
  0
LINE
  8
0
 10
76.2435
 20
-68.8429
 11
76.8406
 21
-68.6489
  0
LINE
  8
0
 10
76.8406
 20
-68.6489
 11
77.4088
 21
-68.3815
  0
LINE
  8
0
 10
77.4088
 20
-68.3815
 11
77.9389
 21
-68.0451
  0
LINE
  8
0
 10
77.9389
 20
-68.0451
 11
78.4227
 21
-67.6448
  0
LINE
  8
0
 10
78.4227
 20
-67.6448
 11
78.8526
 21
-67.1871
  0
LINE
  8
0
 10
78.8526
 20
-67.1871
 11
79.2216
 21
-66.6791
  0
LINE
  8
0
 10
79.2216
 20
-66.6791
 11
79.5241
 21
-66.1289
  0
LINE
  8
0
 10
79.5241
 20
-66.1289
 11
79.7553
 21
-65.5451
  0
LINE
  8
0
 10
79.7553
 20
-65.5451
 11
79.9114
 21
-64.9369
  0
LINE
  8
0
 10
79.9114
 20
-64.9369
 11
80
 21
-64
  0
LINE
  8
0
 10
80
 20
-64
 11
80
 21
64
  0
LINE
  8
0
 10
80
 20
64
 11
79.9606
 21
64.6267
  0
LINE
  8
0
 10
79.9606
 20
64.6267
 11
79.8429
 21
65.2435
  0
LINE
  8
0
 10
79.8429
 20
65.2435
 11
79.6489
 21
65.8406
  0
LINE
  8
0
 10
79.6489
 20
65.8406
 11
79.3815
 21
66.4088
  0
LINE
  8
0
 10
79.3815
 20
66.4088
 11
79.0451
 21
66.9389
  0
LINE
  8
0
 10
79.0451
 20
66.9389
 11
78.6448
 21
67.4227
  0
LINE
  8
0
 10
78.6448
 20
67.4227
 11
78.1871
 21
67.8526
  0
LINE
  8
0
 10
78.1871
 20
67.8526
 11
77.6791
 21
68.2216
  0
LINE
  8
0
 10
77.6791
 20
68.2216
 11
77.1289
 21
68.5241
  0
LINE
  8
0
 10
77.1289
 20
68.5241
 11
76.5451
 21
68.7553
  0
LINE
  8
0
 10
76.5451
 20
68.7553
 11
75.9369
 21
68.9114
  0
LINE
  8
0
 10
75.9369
 20
68.9114
 11
75
 21
69
  0
LINE
  8
0
 10
75
 20
69
 11
-75
 21
69
  0
LINE
  8
0
 10
-75
 20
69
 11
-75.6267
 21
68.9606
  0
LINE
  8
0
 10
-75.6267
 20
68.9606
 11
-76.2435
 21
68.8429
  0
LINE
  8
0
 10
-76.2435
 20
68.8429
 11
-76.8406
 21
68.6489
  0
LINE
  8
0
 10
-76.8406
 20
68.6489
 11
-77.4088
 21
68.3815
  0
LINE
  8
0
 10
-77.4088
 20
68.3815
 11
-77.9389
 21
68.0451
  0
LINE
  8
0
 10
-77.9389
 20
68.0451
 11
-78.4227
 21
67.6448
  0
LINE
  8
0
 10
-78.4227
 20
67.6448
 11
-78.8526
 21
67.1871
  0
LINE
  8
0
 10
-78.8526
 20
67.1871
 11
-79.2216
 21
66.6791
  0
LINE
  8
0
 10
-79.2216
 20
66.6791
 11
-79.5241
 21
66.1289
  0
LINE
  8
0
 10
-79.5241
 20
66.1289
 11
-79.7553
 21
65.5451
  0
LINE
  8
0
 10
-79.7553
 20
65.5451
 11
-79.9114
 21
64.9369
  0
LINE
  8
0
 10
-79.9114
 20
64.9369
 11
-80
 21
64
  0
LINE
  8
0
 10
-80
 20
64
 11
-80
 21
-64
  0
LINE
  8
0
 10
-80
 20
-64
 11
-79.9606
 21
-64.6267
  0
LINE
  8
0
 10
-79.9606
 20
-64.6267
 11
-79.8429
 21
-65.2435
  0
LINE
  8
0
 10
-79.8429
 20
-65.2435
 11
-79.6489
 21
-65.8406
  0
LINE
  8
0
 10
-79.6489
 20
-65.8406
 11
-79.3815
 21
-66.4088
  0
LINE
  8
0
 10
-79.3815
 20
-66.4088
 11
-79.0451
 21
-66.9389
  0
LINE
  8
0
 10
-79.0451
 20
-66.9389
 11
-78.6448
 21
-67.4227
  0
LINE
  8
0
 10
-78.6448
 20
-67.4227
 11
-78.1871
 21
-67.8526
  0
LINE
  8
0
 10
-78.1871
 20
-67.8526
 11
-77.6791
 21
-68.2216
  0
LINE
  8
0
 10
-77.6791
 20
-68.2216
 11
-77.1289
 21
-68.5241
  0
LINE
  8
0
 10
-77.1289
 20
-68.5241
 11
-76.5451
 21
-68.7553
  0
LINE
  8
0
 10
-76.5451
 20
-68.7553
 11
-75.9369
 21
-68.9114
  0
LINE
  8
0
 10
-75.9369
 20
-68.9114
 11
-75
 21
-69
  0
LINE
  8
0
 10
-75
 20
-69
 11
75
 21
-69
  0
LINE
  8
0
 10
75
 20
-69
 11
75.6267
 21
-68.9606
  0
LINE
  8
0
 10
-65.3297
 20
48.7604
 11
-65.9837
 21
48.843
  0
LINE
  8
0
 10
-65.9837
 20
48.843
 11
-66.6223
 21
49.007
  0
LINE
  8
0
 10
-66.6223
 20
49.007
 11
-67.2353
 21
49.2497
  0
LINE
  8
0
 10
-67.2353
 20
49.2497
 11
-67.8131
 21
49.5673
  0
LINE
  8
0
 10
-67.8131
 20
49.5673
 11
-68.3465
 21
49.9548
  0
LINE
  8
0
 10
-68.3465
 20
49.9548
 11
-68.8271
 21
50.4061
  0
LINE
  8
0
 10
-68.8271
 20
50.4061
 11
-69.2473
 21
50.9141
  0
LINE
  8
0
 10
-69.2473
 20
50.9141
 11
-69.6006
 21
51.4708
  0
LINE
  8
0
 10
-69.6006
 20
51.4708
 11
-69.8813
 21
52.0673
  0
LINE
  8
0
 10
-69.8813
 20
52.0673
 11
-70.0851
 21
52.6944
  0
LINE
  8
0
 10
-70.0851
 20
52.6944
 11
-70.2086
 21
53.342
  0
LINE
  8
0
 10
-70.2086
 20
53.342
 11
-70.25
 21
54
  0
LINE
  8
0
 10
-70.25
 20
54
 11
-70.2086
 21
54.658
  0
LINE
  8
0
 10
-70.2086
 20
54.658
 11
-70.0851
 21
55.3056
  0
LINE
  8
0
 10
-70.0851
 20
55.3056
 11
-69.8813
 21
55.9327
  0
LINE
  8
0
 10
-69.8813
 20
55.9327
 11
-69.6006
 21
56.5292
  0
LINE
  8
0
 10
-69.6006
 20
56.5292
 11
-69.2473
 21
57.0859
  0
LINE
  8
0
 10
-69.2473
 20
57.0859
 11
-68.8271
 21
57.5939
  0
LINE
  8
0
 10
-68.8271
 20
57.5939
 11
-68.3465
 21
58.0452
  0
LINE
  8
0
 10
-68.3465
 20
58.0452
 11
-67.8131
 21
58.4327
  0
LINE
  8
0
 10
-67.8131
 20
58.4327
 11
-67.2353
 21
58.7503
  0
LINE
  8
0
 10
-67.2353
 20
58.7503
 11
-66.6223
 21
58.993
  0
LINE
  8
0
 10
-66.6223
 20
58.993
 11
-65.9837
 21
59.157
  0
LINE
  8
0
 10
-65.9837
 20
59.157
 11
-65.3297
 21
59.2396
  0
LINE
  8
0
 10
-65.3297
 20
59.2396
 11
-64.6703
 21
59.2396
  0
LINE
  8
0
 10
-64.6703
 20
59.2396
 11
-64.0163
 21
59.157
  0
LINE
  8
0
 10
-64.0163
 20
59.157
 11
-63.3777
 21
58.993
  0
LINE
  8
0
 10
-63.3777
 20
58.993
 11
-62.7647
 21
58.7503
  0
LINE
  8
0
 10
-62.7647
 20
58.7503
 11
-62.1869
 21
58.4327
  0
LINE
  8
0
 10
-62.1869
 20
58.4327
 11
-61.6535
 21
58.0452
  0
LINE
  8
0
 10
-61.6535
 20
58.0452
 11
-61.1729
 21
57.5939
  0
LINE
  8
0
 10
-61.1729
 20
57.5939
 11
-60.7527
 21
57.0859
  0
LINE
  8
0
 10
-60.7527
 20
57.0859
 11
-60.3994
 21
56.5292
  0
LINE
  8
0
 10
-60.3994
 20
56.5292
 11
-60.1187
 21
55.9327
  0
LINE
  8
0
 10
-60.1187
 20
55.9327
 11
-59.9149
 21
55.3056
  0
LINE
  8
0
 10
-59.9149
 20
55.3056
 11
-59.7914
 21
54.658
  0
LINE
  8
0
 10
-59.7914
 20
54.658
 11
-59.75
 21
54
  0
LINE
  8
0
 10
-59.75
 20
54
 11
-59.7914
 21
53.342
  0
LINE
  8
0
 10
-59.7914
 20
53.342
 11
-59.9149
 21
52.6944
  0
LINE
  8
0
 10
-59.9149
 20
52.6944
 11
-60.1187
 21
52.0673
  0
LINE
  8
0
 10
-60.1187
 20
52.0673
 11
-60.3994
 21
51.4708
  0
LINE
  8
0
 10
-60.3994
 20
51.4708
 11
-60.7527
 21
50.9141
  0
LINE
  8
0
 10
-60.7527
 20
50.9141
 11
-61.1729
 21
50.4061
  0
LINE
  8
0
 10
-61.1729
 20
50.4061
 11
-61.6535
 21
49.9548
  0
LINE
  8
0
 10
-61.6535
 20
49.9548
 11
-62.1869
 21
49.5673
  0
LINE
  8
0
 10
-62.1869
 20
49.5673
 11
-62.7647
 21
49.2497
  0
LINE
  8
0
 10
-62.7647
 20
49.2497
 11
-63.3777
 21
49.007
  0
LINE
  8
0
 10
-63.3777
 20
49.007
 11
-64.0163
 21
48.843
  0
LINE
  8
0
 10
-64.0163
 20
48.843
 11
-64.6703
 21
48.7604
  0
LINE
  8
0
 10
-64.6703
 20
48.7604
 11
-65.3297
 21
48.7604
  0
LINE
  8
0
 10
64.6703
 20
48.7604
 11
64.0163
 21
48.843
  0
LINE
  8
0
 10
64.0163
 20
48.843
 11
63.3777
 21
49.007
  0
LINE
  8
0
 10
63.3777
 20
49.007
 11
62.7647
 21
49.2497
  0
LINE
  8
0
 10
62.7647
 20
49.2497
 11
62.1869
 21
49.5673
  0
LINE
  8
0
 10
62.1869
 20
49.5673
 11
61.6535
 21
49.9548
  0
LINE
  8
0
 10
61.6535
 20
49.9548
 11
61.1729
 21
50.4061
  0
LINE
  8
0
 10
61.1729
 20
50.4061
 11
60.7527
 21
50.9141
  0
LINE
  8
0
 10
60.7527
 20
50.9141
 11
60.3994
 21
51.4708
  0
LINE
  8
0
 10
60.3994
 20
51.4708
 11
60.1187
 21
52.0673
  0
LINE
  8
0
 10
60.1187
 20
52.0673
 11
59.9149
 21
52.6944
  0
LINE
  8
0
 10
59.9149
 20
52.6944
 11
59.7914
 21
53.342
  0
LINE
  8
0
 10
59.7914
 20
53.342
 11
59.75
 21
54
  0
LINE
  8
0
 10
59.75
 20
54
 11
59.7914
 21
54.658
  0
LINE
  8
0
 10
59.7914
 20
54.658
 11
59.9149
 21
55.3056
  0
LINE
  8
0
 10
59.9149
 20
55.3056
 11
60.1187
 21
55.9327
  0
LINE
  8
0
 10
60.1187
 20
55.9327
 11
60.3994
 21
56.5292
  0
LINE
  8
0
 10
60.3994
 20
56.5292
 11
60.7527
 21
57.0859
  0
LINE
  8
0
 10
60.7527
 20
57.0859
 11
61.1729
 21
57.5939
  0
LINE
  8
0
 10
61.1729
 20
57.5939
 11
61.6535
 21
58.0452
  0
LINE
  8
0
 10
61.6535
 20
58.0452
 11
62.1869
 21
58.4327
  0
LINE
  8
0
 10
62.1869
 20
58.4327
 11
62.7647
 21
58.7503
  0
LINE
  8
0
 10
62.7647
 20
58.7503
 11
63.3777
 21
58.993
  0
LINE
  8
0
 10
63.3777
 20
58.993
 11
64.0163
 21
59.157
  0
LINE
  8
0
 10
64.0163
 20
59.157
 11
64.6703
 21
59.2396
  0
LINE
  8
0
 10
64.6703
 20
59.2396
 11
65.3297
 21
59.2396
  0
LINE
  8
0
 10
65.3297
 20
59.2396
 11
65.9837
 21
59.157
  0
LINE
  8
0
 10
65.9837
 20
59.157
 11
66.6223
 21
58.993
  0
LINE
  8
0
 10
66.6223
 20
58.993
 11
67.2353
 21
58.7503
  0
LINE
  8
0
 10
67.2353
 20
58.7503
 11
67.8131
 21
58.4327
  0
LINE
  8
0
 10
67.8131
 20
58.4327
 11
68.3465
 21
58.0452
  0
LINE
  8
0
 10
68.3465
 20
58.0452
 11
68.8271
 21
57.5939
  0
LINE
  8
0
 10
68.8271
 20
57.5939
 11
69.2473
 21
57.0859
  0
LINE
  8
0
 10
69.2473
 20
57.0859
 11
69.6006
 21
56.5292
  0
LINE
  8
0
 10
69.6006
 20
56.5292
 11
69.8813
 21
55.9327
  0
LINE
  8
0
 10
69.8813
 20
55.9327
 11
70.0851
 21
55.3056
  0
LINE
  8
0
 10
70.0851
 20
55.3056
 11
70.2086
 21
54.658
  0
LINE
  8
0
 10
70.2086
 20
54.658
 11
70.25
 21
54
  0
LINE
  8
0
 10
70.25
 20
54
 11
70.2086
 21
53.342
  0
LINE
  8
0
 10
70.2086
 20
53.342
 11
70.0851
 21
52.6944
  0
LINE
  8
0
 10
70.0851
 20
52.6944
 11
69.8813
 21
52.0673
  0
LINE
  8
0
 10
69.8813
 20
52.0673
 11
69.6006
 21
51.4708
  0
LINE
  8
0
 10
69.6006
 20
51.4708
 11
69.2473
 21
50.9141
  0
LINE
  8
0
 10
69.2473
 20
50.9141
 11
68.8271
 21
50.4061
  0
LINE
  8
0
 10
68.8271
 20
50.4061
 11
68.3465
 21
49.9548
  0
LINE
  8
0
 10
68.3465
 20
49.9548
 11
67.8131
 21
49.5673
  0
LINE
  8
0
 10
67.8131
 20
49.5673
 11
67.2353
 21
49.2497
  0
LINE
  8
0
 10
67.2353
 20
49.2497
 11
66.6223
 21
49.007
  0
LINE
  8
0
 10
66.6223
 20
49.007
 11
65.9837
 21
48.843
  0
LINE
  8
0
 10
65.9837
 20
48.843
 11
65.3297
 21
48.7604
  0
LINE
  8
0
 10
65.3297
 20
48.7604
 11
64.6703
 21
48.7604
  0
LINE
  8
0
 10
-70.1727
 20
19.2554
 11
-70.5153
 21
19.2987
  0
LINE
  8
0
 10
-70.5153
 20
19.2987
 11
-70.8498
 21
19.3846
  0
LINE
  8
0
 10
-70.8498
 20
19.3846
 11
-71.1709
 21
19.5117
  0
LINE
  8
0
 10
-71.1709
 20
19.5117
 11
-71.4735
 21
19.6781
  0
LINE
  8
0
 10
-71.4735
 20
19.6781
 11
-71.7529
 21
19.8811
  0
LINE
  8
0
 10
-71.7529
 20
19.8811
 11
-72.0047
 21
20.1175
  0
LINE
  8
0
 10
-72.0047
 20
20.1175
 11
-72.2248
 21
20.3836
  0
LINE
  8
0
 10
-72.2248
 20
20.3836
 11
-72.4098
 21
20.6752
  0
LINE
  8
0
 10
-72.4098
 20
20.6752
 11
-72.5569
 21
20.9877
  0
LINE
  8
0
 10
-72.5569
 20
20.9877
 11
-72.6636
 21
21.3161
  0
LINE
  8
0
 10
-72.6636
 20
21.3161
 11
-72.7283
 21
21.6553
  0
LINE
  8
0
 10
-72.7283
 20
21.6553
 11
-72.75
 21
22
  0
LINE
  8
0
 10
-72.75
 20
22
 11
-72.7283
 21
22.3447
  0
LINE
  8
0
 10
-72.7283
 20
22.3447
 11
-72.6636
 21
22.6839
  0
LINE
  8
0
 10
-72.6636
 20
22.6839
 11
-72.5569
 21
23.0123
  0
LINE
  8
0
 10
-72.5569
 20
23.0123
 11
-72.4098
 21
23.3248
  0
LINE
  8
0
 10
-72.4098
 20
23.3248
 11
-72.2248
 21
23.6164
  0
LINE
  8
0
 10
-72.2248
 20
23.6164
 11
-72.0047
 21
23.8825
  0
LINE
  8
0
 10
-72.0047
 20
23.8825
 11
-71.7529
 21
24.1189
  0
LINE
  8
0
 10
-71.7529
 20
24.1189
 11
-71.4735
 21
24.3219
  0
LINE
  8
0
 10
-71.4735
 20
24.3219
 11
-71.1709
 21
24.4883
  0
LINE
  8
0
 10
-71.1709
 20
24.4883
 11
-70.8498
 21
24.6154
  0
LINE
  8
0
 10
-70.8498
 20
24.6154
 11
-70.5153
 21
24.7013
  0
LINE
  8
0
 10
-70.5153
 20
24.7013
 11
-70.1727
 21
24.7446
  0
LINE
  8
0
 10
-70.1727
 20
24.7446
 11
-69.8273
 21
24.7446
  0
LINE
  8
0
 10
-69.8273
 20
24.7446
 11
-69.4847
 21
24.7013
  0
LINE
  8
0
 10
-69.4847
 20
24.7013
 11
-69.1502
 21
24.6154
  0
LINE
  8
0
 10
-69.1502
 20
24.6154
 11
-68.8291
 21
24.4883
  0
LINE
  8
0
 10
-68.8291
 20
24.4883
 11
-68.5265
 21
24.3219
  0
LINE
  8
0
 10
-68.5265
 20
24.3219
 11
-68.2471
 21
24.1189
  0
LINE
  8
0
 10
-68.2471
 20
24.1189
 11
-67.9953
 21
23.8825
  0
LINE
  8
0
 10
-67.9953
 20
23.8825
 11
-67.7752
 21
23.6164
  0
LINE
  8
0
 10
-67.7752
 20
23.6164
 11
-67.5902
 21
23.3248
  0
LINE
  8
0
 10
-67.5902
 20
23.3248
 11
-67.4431
 21
23.0123
  0
LINE
  8
0
 10
-67.4431
 20
23.0123
 11
-67.3364
 21
22.6839
  0
LINE
  8
0
 10
-67.3364
 20
22.6839
 11
-67.2717
 21
22.3447
  0
LINE
  8
0
 10
-67.2717
 20
22.3447
 11
-67.25
 21
22
  0
LINE
  8
0
 10
-67.25
 20
22
 11
-67.2717
 21
21.6553
  0
LINE
  8
0
 10
-67.2717
 20
21.6553
 11
-67.3364
 21
21.3161
  0
LINE
  8
0
 10
-67.3364
 20
21.3161
 11
-67.4431
 21
20.9877
  0
LINE
  8
0
 10
-67.4431
 20
20.9877
 11
-67.5902
 21
20.6752
  0
LINE
  8
0
 10
-67.5902
 20
20.6752
 11
-67.7752
 21
20.3836
  0
LINE
  8
0
 10
-67.7752
 20
20.3836
 11
-67.9953
 21
20.1175
  0
LINE
  8
0
 10
-67.9953
 20
20.1175
 11
-68.2471
 21
19.8811
  0
LINE
  8
0
 10
-68.2471
 20
19.8811
 11
-68.5265
 21
19.6781
  0
LINE
  8
0
 10
-68.5265
 20
19.6781
 11
-68.8291
 21
19.5117
  0
LINE
  8
0
 10
-68.8291
 20
19.5117
 11
-69.1502
 21
19.3846
  0
LINE
  8
0
 10
-69.1502
 20
19.3846
 11
-69.4847
 21
19.2987
  0
LINE
  8
0
 10
-69.4847
 20
19.2987
 11
-69.8273
 21
19.2554
  0
LINE
  8
0
 10
-69.8273
 20
19.2554
 11
-70.1727
 21
19.2554
  0
LINE
  8
0
 10
69.8273
 20
19.2554
 11
69.4847
 21
19.2987
  0
LINE
  8
0
 10
69.4847
 20
19.2987
 11
69.1502
 21
19.3846
  0
LINE
  8
0
 10
69.1502
 20
19.3846
 11
68.8291
 21
19.5117
  0
LINE
  8
0
 10
68.8291
 20
19.5117
 11
68.5265
 21
19.6781
  0
LINE
  8
0
 10
68.5265
 20
19.6781
 11
68.2471
 21
19.8811
  0
LINE
  8
0
 10
68.2471
 20
19.8811
 11
67.9953
 21
20.1175
  0
LINE
  8
0
 10
67.9953
 20
20.1175
 11
67.7752
 21
20.3836
  0
LINE
  8
0
 10
67.7752
 20
20.3836
 11
67.5902
 21
20.6752
  0
LINE
  8
0
 10
67.5902
 20
20.6752
 11
67.4431
 21
20.9877
  0
LINE
  8
0
 10
67.4431
 20
20.9877
 11
67.3364
 21
21.3161
  0
LINE
  8
0
 10
67.3364
 20
21.3161
 11
67.2717
 21
21.6553
  0
LINE
  8
0
 10
67.2717
 20
21.6553
 11
67.25
 21
22
  0
LINE
  8
0
 10
67.25
 20
22
 11
67.2717
 21
22.3447
  0
LINE
  8
0
 10
67.2717
 20
22.3447
 11
67.3364
 21
22.6839
  0
LINE
  8
0
 10
67.3364
 20
22.6839
 11
67.4431
 21
23.0123
  0
LINE
  8
0
 10
67.4431
 20
23.0123
 11
67.5902
 21
23.3248
  0
LINE
  8
0
 10
67.5902
 20
23.3248
 11
67.7752
 21
23.6164
  0
LINE
  8
0
 10
67.7752
 20
23.6164
 11
67.9953
 21
23.8825
  0
LINE
  8
0
 10
67.9953
 20
23.8825
 11
68.2471
 21
24.1189
  0
LINE
  8
0
 10
68.2471
 20
24.1189
 11
68.5265
 21
24.3219
  0
LINE
  8
0
 10
68.5265
 20
24.3219
 11
68.8291
 21
24.4883
  0
LINE
  8
0
 10
68.8291
 20
24.4883
 11
69.1502
 21
24.6154
  0
LINE
  8
0
 10
69.1502
 20
24.6154
 11
69.4847
 21
24.7013
  0
LINE
  8
0
 10
69.4847
 20
24.7013
 11
69.8273
 21
24.7446
  0
LINE
  8
0
 10
69.8273
 20
24.7446
 11
70.1727
 21
24.7446
  0
LINE
  8
0
 10
70.1727
 20
24.7446
 11
70.5153
 21
24.7013
  0
LINE
  8
0
 10
70.5153
 20
24.7013
 11
70.8498
 21
24.6154
  0
LINE
  8
0
 10
70.8498
 20
24.6154
 11
71.1709
 21
24.4883
  0
LINE
  8
0
 10
71.1709
 20
24.4883
 11
71.4735
 21
24.3219
  0
LINE
  8
0
 10
71.4735
 20
24.3219
 11
71.7529
 21
24.1189
  0
LINE
  8
0
 10
71.7529
 20
24.1189
 11
72.0047
 21
23.8825
  0
LINE
  8
0
 10
72.0047
 20
23.8825
 11
72.2248
 21
23.6164
  0
LINE
  8
0
 10
72.2248
 20
23.6164
 11
72.4098
 21
23.3248
  0
LINE
  8
0
 10
72.4098
 20
23.3248
 11
72.5569
 21
23.0123
  0
LINE
  8
0
 10
72.5569
 20
23.0123
 11
72.6636
 21
22.6839
  0
LINE
  8
0
 10
72.6636
 20
22.6839
 11
72.7283
 21
22.3447
  0
LINE
  8
0
 10
72.7283
 20
22.3447
 11
72.75
 21
22
  0
LINE
  8
0
 10
72.75
 20
22
 11
72.7283
 21
21.6553
  0
LINE
  8
0
 10
72.7283
 20
21.6553
 11
72.6636
 21
21.3161
  0
LINE
  8
0
 10
72.6636
 20
21.3161
 11
72.5569
 21
20.9877
  0
LINE
  8
0
 10
72.5569
 20
20.9877
 11
72.4098
 21
20.6752
  0
LINE
  8
0
 10
72.4098
 20
20.6752
 11
72.2248
 21
20.3836
  0
LINE
  8
0
 10
72.2248
 20
20.3836
 11
72.0047
 21
20.1175
  0
LINE
  8
0
 10
72.0047
 20
20.1175
 11
71.7529
 21
19.8811
  0
LINE
  8
0
 10
71.7529
 20
19.8811
 11
71.4735
 21
19.6781
  0
LINE
  8
0
 10
71.4735
 20
19.6781
 11
71.1709
 21
19.5117
  0
LINE
  8
0
 10
71.1709
 20
19.5117
 11
70.8498
 21
19.3846
  0
LINE
  8
0
 10
70.8498
 20
19.3846
 11
70.5153
 21
19.2987
  0
LINE
  8
0
 10
70.5153
 20
19.2987
 11
70.1727
 21
19.2554
  0
LINE
  8
0
 10
70.1727
 20
19.2554
 11
69.8273
 21
19.2554
  0
LINE
  8
0
 10
69.8273
 20
-24.7446
 11
69.4847
 21
-24.7013
  0
LINE
  8
0
 10
69.4847
 20
-24.7013
 11
69.1502
 21
-24.6154
  0
LINE
  8
0
 10
69.1502
 20
-24.6154
 11
68.8291
 21
-24.4883
  0
LINE
  8
0
 10
68.8291
 20
-24.4883
 11
68.5265
 21
-24.3219
  0
LINE
  8
0
 10
68.5265
 20
-24.3219
 11
68.2471
 21
-24.1189
  0
LINE
  8
0
 10
68.2471
 20
-24.1189
 11
67.9953
 21
-23.8825
  0
LINE
  8
0
 10
67.9953
 20
-23.8825
 11
67.7752
 21
-23.6164
  0
LINE
  8
0
 10
67.7752
 20
-23.6164
 11
67.5902
 21
-23.3248
  0
LINE
  8
0
 10
67.5902
 20
-23.3248
 11
67.4431
 21
-23.0123
  0
LINE
  8
0
 10
67.4431
 20
-23.0123
 11
67.3364
 21
-22.6839
  0
LINE
  8
0
 10
67.3364
 20
-22.6839
 11
67.2717
 21
-22.3447
  0
LINE
  8
0
 10
67.2717
 20
-22.3447
 11
67.25
 21
-22
  0
LINE
  8
0
 10
67.25
 20
-22
 11
67.2717
 21
-21.6553
  0
LINE
  8
0
 10
67.2717
 20
-21.6553
 11
67.3364
 21
-21.3161
  0
LINE
  8
0
 10
67.3364
 20
-21.3161
 11
67.4431
 21
-20.9877
  0
LINE
  8
0
 10
67.4431
 20
-20.9877
 11
67.5902
 21
-20.6752
  0
LINE
  8
0
 10
67.5902
 20
-20.6752
 11
67.7752
 21
-20.3836
  0
LINE
  8
0
 10
67.7752
 20
-20.3836
 11
67.9953
 21
-20.1175
  0
LINE
  8
0
 10
67.9953
 20
-20.1175
 11
68.2471
 21
-19.8811
  0
LINE
  8
0
 10
68.2471
 20
-19.8811
 11
68.5265
 21
-19.6781
  0
LINE
  8
0
 10
68.5265
 20
-19.6781
 11
68.8291
 21
-19.5117
  0
LINE
  8
0
 10
68.8291
 20
-19.5117
 11
69.1502
 21
-19.3846
  0
LINE
  8
0
 10
69.1502
 20
-19.3846
 11
69.4847
 21
-19.2987
  0
LINE
  8
0
 10
69.4847
 20
-19.2987
 11
69.8273
 21
-19.2554
  0
LINE
  8
0
 10
69.8273
 20
-19.2554
 11
70.1727
 21
-19.2554
  0
LINE
  8
0
 10
70.1727
 20
-19.2554
 11
70.5153
 21
-19.2987
  0
LINE
  8
0
 10
70.5153
 20
-19.2987
 11
70.8498
 21
-19.3846
  0
LINE
  8
0
 10
70.8498
 20
-19.3846
 11
71.1709
 21
-19.5117
  0
LINE
  8
0
 10
71.1709
 20
-19.5117
 11
71.4735
 21
-19.6781
  0
LINE
  8
0
 10
71.4735
 20
-19.6781
 11
71.7529
 21
-19.8811
  0
LINE
  8
0
 10
71.7529
 20
-19.8811
 11
72.0047
 21
-20.1175
  0
LINE
  8
0
 10
72.0047
 20
-20.1175
 11
72.2248
 21
-20.3836
  0
LINE
  8
0
 10
72.2248
 20
-20.3836
 11
72.4098
 21
-20.6752
  0
LINE
  8
0
 10
72.4098
 20
-20.6752
 11
72.5569
 21
-20.9877
  0
LINE
  8
0
 10
72.5569
 20
-20.9877
 11
72.6636
 21
-21.3161
  0
LINE
  8
0
 10
72.6636
 20
-21.3161
 11
72.7283
 21
-21.6553
  0
LINE
  8
0
 10
72.7283
 20
-21.6553
 11
72.75
 21
-22
  0
LINE
  8
0
 10
72.75
 20
-22
 11
72.7283
 21
-22.3447
  0
LINE
  8
0
 10
72.7283
 20
-22.3447
 11
72.6636
 21
-22.6839
  0
LINE
  8
0
 10
72.6636
 20
-22.6839
 11
72.5569
 21
-23.0123
  0
LINE
  8
0
 10
72.5569
 20
-23.0123
 11
72.4098
 21
-23.3248
  0
LINE
  8
0
 10
72.4098
 20
-23.3248
 11
72.2248
 21
-23.6164
  0
LINE
  8
0
 10
72.2248
 20
-23.6164
 11
72.0047
 21
-23.8825
  0
LINE
  8
0
 10
72.0047
 20
-23.8825
 11
71.7529
 21
-24.1189
  0
LINE
  8
0
 10
71.7529
 20
-24.1189
 11
71.4735
 21
-24.3219
  0
LINE
  8
0
 10
71.4735
 20
-24.3219
 11
71.1709
 21
-24.4883
  0
LINE
  8
0
 10
71.1709
 20
-24.4883
 11
70.8498
 21
-24.6154
  0
LINE
  8
0
 10
70.8498
 20
-24.6154
 11
70.5153
 21
-24.7013
  0
LINE
  8
0
 10
70.5153
 20
-24.7013
 11
70.1727
 21
-24.7446
  0
LINE
  8
0
 10
70.1727
 20
-24.7446
 11
69.8273
 21
-24.7446
  0
LINE
  8
0
 10
-70.1727
 20
-24.7446
 11
-70.5153
 21
-24.7013
  0
LINE
  8
0
 10
-70.5153
 20
-24.7013
 11
-70.8498
 21
-24.6154
  0
LINE
  8
0
 10
-70.8498
 20
-24.6154
 11
-71.1709
 21
-24.4883
  0
LINE
  8
0
 10
-71.1709
 20
-24.4883
 11
-71.4735
 21
-24.3219
  0
LINE
  8
0
 10
-71.4735
 20
-24.3219
 11
-71.7529
 21
-24.1189
  0
LINE
  8
0
 10
-71.7529
 20
-24.1189
 11
-72.0047
 21
-23.8825
  0
LINE
  8
0
 10
-72.0047
 20
-23.8825
 11
-72.2248
 21
-23.6164
  0
LINE
  8
0
 10
-72.2248
 20
-23.6164
 11
-72.4098
 21
-23.3248
  0
LINE
  8
0
 10
-72.4098
 20
-23.3248
 11
-72.5569
 21
-23.0123
  0
LINE
  8
0
 10
-72.5569
 20
-23.0123
 11
-72.6636
 21
-22.6839
  0
LINE
  8
0
 10
-72.6636
 20
-22.6839
 11
-72.7283
 21
-22.3447
  0
LINE
  8
0
 10
-72.7283
 20
-22.3447
 11
-72.75
 21
-22
  0
LINE
  8
0
 10
-72.75
 20
-22
 11
-72.7283
 21
-21.6553
  0
LINE
  8
0
 10
-72.7283
 20
-21.6553
 11
-72.6636
 21
-21.3161
  0
LINE
  8
0
 10
-72.6636
 20
-21.3161
 11
-72.5569
 21
-20.9877
  0
LINE
  8
0
 10
-72.5569
 20
-20.9877
 11
-72.4098
 21
-20.6752
  0
LINE
  8
0
 10
-72.4098
 20
-20.6752
 11
-72.2248
 21
-20.3836
  0
LINE
  8
0
 10
-72.2248
 20
-20.3836
 11
-72.0047
 21
-20.1175
  0
LINE
  8
0
 10
-72.0047
 20
-20.1175
 11
-71.7529
 21
-19.8811
  0
LINE
  8
0
 10
-71.7529
 20
-19.8811
 11
-71.4735
 21
-19.6781
  0
LINE
  8
0
 10
-71.4735
 20
-19.6781
 11
-71.1709
 21
-19.5117
  0
LINE
  8
0
 10
-71.1709
 20
-19.5117
 11
-70.8498
 21
-19.3846
  0
LINE
  8
0
 10
-70.8498
 20
-19.3846
 11
-70.5153
 21
-19.2987
  0
LINE
  8
0
 10
-70.5153
 20
-19.2987
 11
-70.1727
 21
-19.2554
  0
LINE
  8
0
 10
-70.1727
 20
-19.2554
 11
-69.8273
 21
-19.2554
  0
LINE
  8
0
 10
-69.8273
 20
-19.2554
 11
-69.4847
 21
-19.2987
  0
LINE
  8
0
 10
-69.4847
 20
-19.2987
 11
-69.1502
 21
-19.3846
  0
LINE
  8
0
 10
-69.1502
 20
-19.3846
 11
-68.8291
 21
-19.5117
  0
LINE
  8
0
 10
-68.8291
 20
-19.5117
 11
-68.5265
 21
-19.6781
  0
LINE
  8
0
 10
-68.5265
 20
-19.6781
 11
-68.2471
 21
-19.8811
  0
LINE
  8
0
 10
-68.2471
 20
-19.8811
 11
-67.9953
 21
-20.1175
  0
LINE
  8
0
 10
-67.9953
 20
-20.1175
 11
-67.7752
 21
-20.3836
  0
LINE
  8
0
 10
-67.7752
 20
-20.3836
 11
-67.5902
 21
-20.6752
  0
LINE
  8
0
 10
-67.5902
 20
-20.6752
 11
-67.4431
 21
-20.9877
  0
LINE
  8
0
 10
-67.4431
 20
-20.9877
 11
-67.3364
 21
-21.3161
  0
LINE
  8
0
 10
-67.3364
 20
-21.3161
 11
-67.2717
 21
-21.6553
  0
LINE
  8
0
 10
-67.2717
 20
-21.6553
 11
-67.25
 21
-22
  0
LINE
  8
0
 10
-67.25
 20
-22
 11
-67.2717
 21
-22.3447
  0
LINE
  8
0
 10
-67.2717
 20
-22.3447
 11
-67.3364
 21
-22.6839
  0
LINE
  8
0
 10
-67.3364
 20
-22.6839
 11
-67.4431
 21
-23.0123
  0
LINE
  8
0
 10
-67.4431
 20
-23.0123
 11
-67.5902
 21
-23.3248
  0
LINE
  8
0
 10
-67.5902
 20
-23.3248
 11
-67.7752
 21
-23.6164
  0
LINE
  8
0
 10
-67.7752
 20
-23.6164
 11
-67.9953
 21
-23.8825
  0
LINE
  8
0
 10
-67.9953
 20
-23.8825
 11
-68.2471
 21
-24.1189
  0
LINE
  8
0
 10
-68.2471
 20
-24.1189
 11
-68.5265
 21
-24.3219
  0
LINE
  8
0
 10
-68.5265
 20
-24.3219
 11
-68.8291
 21
-24.4883
  0
LINE
  8
0
 10
-68.8291
 20
-24.4883
 11
-69.1502
 21
-24.6154
  0
LINE
  8
0
 10
-69.1502
 20
-24.6154
 11
-69.4847
 21
-24.7013
  0
LINE
  8
0
 10
-69.4847
 20
-24.7013
 11
-69.8273
 21
-24.7446
  0
LINE
  8
0
 10
-69.8273
 20
-24.7446
 11
-70.1727
 21
-24.7446
  0
LINE
  8
0
 10
-65.3297
 20
-59.2396
 11
-65.9837
 21
-59.157
  0
LINE
  8
0
 10
-65.9837
 20
-59.157
 11
-66.6223
 21
-58.993
  0
LINE
  8
0
 10
-66.6223
 20
-58.993
 11
-67.2353
 21
-58.7503
  0
LINE
  8
0
 10
-67.2353
 20
-58.7503
 11
-67.8131
 21
-58.4327
  0
LINE
  8
0
 10
-67.8131
 20
-58.4327
 11
-68.3465
 21
-58.0452
  0
LINE
  8
0
 10
-68.3465
 20
-58.0452
 11
-68.8271
 21
-57.5939
  0
LINE
  8
0
 10
-68.8271
 20
-57.5939
 11
-69.2473
 21
-57.0859
  0
LINE
  8
0
 10
-69.2473
 20
-57.0859
 11
-69.6006
 21
-56.5292
  0
LINE
  8
0
 10
-69.6006
 20
-56.5292
 11
-69.8813
 21
-55.9327
  0
LINE
  8
0
 10
-69.8813
 20
-55.9327
 11
-70.0851
 21
-55.3056
  0
LINE
  8
0
 10
-70.0851
 20
-55.3056
 11
-70.2086
 21
-54.658
  0
LINE
  8
0
 10
-70.2086
 20
-54.658
 11
-70.25
 21
-54
  0
LINE
  8
0
 10
-70.25
 20
-54
 11
-70.2086
 21
-53.342
  0
LINE
  8
0
 10
-70.2086
 20
-53.342
 11
-70.0851
 21
-52.6944
  0
LINE
  8
0
 10
-70.0851
 20
-52.6944
 11
-69.8813
 21
-52.0673
  0
LINE
  8
0
 10
-69.8813
 20
-52.0673
 11
-69.6006
 21
-51.4708
  0
LINE
  8
0
 10
-69.6006
 20
-51.4708
 11
-69.2473
 21
-50.9141
  0
LINE
  8
0
 10
-69.2473
 20
-50.9141
 11
-68.8271
 21
-50.4061
  0
LINE
  8
0
 10
-68.8271
 20
-50.4061
 11
-68.3465
 21
-49.9548
  0
LINE
  8
0
 10
-68.3465
 20
-49.9548
 11
-67.8131
 21
-49.5673
  0
LINE
  8
0
 10
-67.8131
 20
-49.5673
 11
-67.2353
 21
-49.2497
  0
LINE
  8
0
 10
-67.2353
 20
-49.2497
 11
-66.6223
 21
-49.007
  0
LINE
  8
0
 10
-66.6223
 20
-49.007
 11
-65.9837
 21
-48.843
  0
LINE
  8
0
 10
-65.9837
 20
-48.843
 11
-65.3297
 21
-48.7604
  0
LINE
  8
0
 10
-65.3297
 20
-48.7604
 11
-64.6703
 21
-48.7604
  0
LINE
  8
0
 10
-64.6703
 20
-48.7604
 11
-64.0163
 21
-48.843
  0
LINE
  8
0
 10
-64.0163
 20
-48.843
 11
-63.3777
 21
-49.007
  0
LINE
  8
0
 10
-63.3777
 20
-49.007
 11
-62.7647
 21
-49.2497
  0
LINE
  8
0
 10
-62.7647
 20
-49.2497
 11
-62.1869
 21
-49.5673
  0
LINE
  8
0
 10
-62.1869
 20
-49.5673
 11
-61.6535
 21
-49.9548
  0
LINE
  8
0
 10
-61.6535
 20
-49.9548
 11
-61.1729
 21
-50.4061
  0
LINE
  8
0
 10
-61.1729
 20
-50.4061
 11
-60.7527
 21
-50.9141
  0
LINE
  8
0
 10
-60.7527
 20
-50.9141
 11
-60.3994
 21
-51.4708
  0
LINE
  8
0
 10
-60.3994
 20
-51.4708
 11
-60.1187
 21
-52.0673
  0
LINE
  8
0
 10
-60.1187
 20
-52.0673
 11
-59.9149
 21
-52.6944
  0
LINE
  8
0
 10
-59.9149
 20
-52.6944
 11
-59.7914
 21
-53.342
  0
LINE
  8
0
 10
-59.7914
 20
-53.342
 11
-59.75
 21
-54
  0
LINE
  8
0
 10
-59.75
 20
-54
 11
-59.7914
 21
-54.658
  0
LINE
  8
0
 10
-59.7914
 20
-54.658
 11
-59.9149
 21
-55.3056
  0
LINE
  8
0
 10
-59.9149
 20
-55.3056
 11
-60.1187
 21
-55.9327
  0
LINE
  8
0
 10
-60.1187
 20
-55.9327
 11
-60.3994
 21
-56.5292
  0
LINE
  8
0
 10
-60.3994
 20
-56.5292
 11
-60.7527
 21
-57.0859
  0
LINE
  8
0
 10
-60.7527
 20
-57.0859
 11
-61.1729
 21
-57.5939
  0
LINE
  8
0
 10
-61.1729
 20
-57.5939
 11
-61.6535
 21
-58.0452
  0
LINE
  8
0
 10
-61.6535
 20
-58.0452
 11
-62.1869
 21
-58.4327
  0
LINE
  8
0
 10
-62.1869
 20
-58.4327
 11
-62.7647
 21
-58.7503
  0
LINE
  8
0
 10
-62.7647
 20
-58.7503
 11
-63.3777
 21
-58.993
  0
LINE
  8
0
 10
-63.3777
 20
-58.993
 11
-64.0163
 21
-59.157
  0
LINE
  8
0
 10
-64.0163
 20
-59.157
 11
-64.6703
 21
-59.2396
  0
LINE
  8
0
 10
-64.6703
 20
-59.2396
 11
-65.3297
 21
-59.2396
  0
LINE
  8
0
 10
64.6703
 20
-59.2396
 11
64.0163
 21
-59.157
  0
LINE
  8
0
 10
64.0163
 20
-59.157
 11
63.3777
 21
-58.993
  0
LINE
  8
0
 10
63.3777
 20
-58.993
 11
62.7647
 21
-58.7503
  0
LINE
  8
0
 10
62.7647
 20
-58.7503
 11
62.1869
 21
-58.4327
  0
LINE
  8
0
 10
62.1869
 20
-58.4327
 11
61.6535
 21
-58.0452
  0
LINE
  8
0
 10
61.6535
 20
-58.0452
 11
61.1729
 21
-57.5939
  0
LINE
  8
0
 10
61.1729
 20
-57.5939
 11
60.7527
 21
-57.0859
  0
LINE
  8
0
 10
60.7527
 20
-57.0859
 11
60.3994
 21
-56.5292
  0
LINE
  8
0
 10
60.3994
 20
-56.5292
 11
60.1187
 21
-55.9327
  0
LINE
  8
0
 10
60.1187
 20
-55.9327
 11
59.9149
 21
-55.3056
  0
LINE
  8
0
 10
59.9149
 20
-55.3056
 11
59.7914
 21
-54.658
  0
LINE
  8
0
 10
59.7914
 20
-54.658
 11
59.75
 21
-54
  0
LINE
  8
0
 10
59.75
 20
-54
 11
59.7914
 21
-53.342
  0
LINE
  8
0
 10
59.7914
 20
-53.342
 11
59.9149
 21
-52.6944
  0
LINE
  8
0
 10
59.9149
 20
-52.6944
 11
60.1187
 21
-52.0673
  0
LINE
  8
0
 10
60.1187
 20
-52.0673
 11
60.3994
 21
-51.4708
  0
LINE
  8
0
 10
60.3994
 20
-51.4708
 11
60.7527
 21
-50.9141
  0
LINE
  8
0
 10
60.7527
 20
-50.9141
 11
61.1729
 21
-50.4061
  0
LINE
  8
0
 10
61.1729
 20
-50.4061
 11
61.6535
 21
-49.9548
  0
LINE
  8
0
 10
61.6535
 20
-49.9548
 11
62.1869
 21
-49.5673
  0
LINE
  8
0
 10
62.1869
 20
-49.5673
 11
62.7647
 21
-49.2497
  0
LINE
  8
0
 10
62.7647
 20
-49.2497
 11
63.3777
 21
-49.007
  0
LINE
  8
0
 10
63.3777
 20
-49.007
 11
64.0163
 21
-48.843
  0
LINE
  8
0
 10
64.0163
 20
-48.843
 11
64.6703
 21
-48.7604
  0
LINE
  8
0
 10
64.6703
 20
-48.7604
 11
65.3297
 21
-48.7604
  0
LINE
  8
0
 10
65.3297
 20
-48.7604
 11
65.9837
 21
-48.843
  0
LINE
  8
0
 10
65.9837
 20
-48.843
 11
66.6223
 21
-49.007
  0
LINE
  8
0
 10
66.6223
 20
-49.007
 11
67.2353
 21
-49.2497
  0
LINE
  8
0
 10
67.2353
 20
-49.2497
 11
67.8131
 21
-49.5673
  0
LINE
  8
0
 10
67.8131
 20
-49.5673
 11
68.3465
 21
-49.9548
  0
LINE
  8
0
 10
68.3465
 20
-49.9548
 11
68.8271
 21
-50.4061
  0
LINE
  8
0
 10
68.8271
 20
-50.4061
 11
69.2473
 21
-50.9141
  0
LINE
  8
0
 10
69.2473
 20
-50.9141
 11
69.6006
 21
-51.4708
  0
LINE
  8
0
 10
69.6006
 20
-51.4708
 11
69.8813
 21
-52.0673
  0
LINE
  8
0
 10
69.8813
 20
-52.0673
 11
70.0851
 21
-52.6944
  0
LINE
  8
0
 10
70.0851
 20
-52.6944
 11
70.2086
 21
-53.342
  0
LINE
  8
0
 10
70.2086
 20
-53.342
 11
70.25
 21
-54
  0
LINE
  8
0
 10
70.25
 20
-54
 11
70.2086
 21
-54.658
  0
LINE
  8
0
 10
70.2086
 20
-54.658
 11
70.0851
 21
-55.3056
  0
LINE
  8
0
 10
70.0851
 20
-55.3056
 11
69.8813
 21
-55.9327
  0
LINE
  8
0
 10
69.8813
 20
-55.9327
 11
69.6006
 21
-56.5292
  0
LINE
  8
0
 10
69.6006
 20
-56.5292
 11
69.2473
 21
-57.0859
  0
LINE
  8
0
 10
69.2473
 20
-57.0859
 11
68.8271
 21
-57.5939
  0
LINE
  8
0
 10
68.8271
 20
-57.5939
 11
68.3465
 21
-58.0452
  0
LINE
  8
0
 10
68.3465
 20
-58.0452
 11
67.8131
 21
-58.4327
  0
LINE
  8
0
 10
67.8131
 20
-58.4327
 11
67.2353
 21
-58.7503
  0
LINE
  8
0
 10
67.2353
 20
-58.7503
 11
66.6223
 21
-58.993
  0
LINE
  8
0
 10
66.6223
 20
-58.993
 11
65.9837
 21
-59.157
  0
LINE
  8
0
 10
65.9837
 20
-59.157
 11
65.3297
 21
-59.2396
  0
LINE
  8
0
 10
65.3297
 20
-59.2396
 11
64.6703
 21
-59.2396
  0
ENDSEC
  0
SECTION
  2
OBJECTS
  0
DICTIONARY
  0
ENDSEC
  0
EOF
