<?xml version="1.0" standalone="no"?>
<!DOCTYPE svg PUBLIC "-//W3C//DTD SVG 1.1//EN" "http://www.w3.org/Graphics/SVG/1.1/DTD/svg11.dtd">
<svg width="160mm" height="138mm" viewBox="-80 -69 160 138" xmlns="http://www.w3.org/2000/svg" version="1.1">
<title>OpenSCAD Model</title>
<path d="
M 75.6267,68.9606 L 76.2435,68.8429 L 76.8406,68.6489 L 77.4088,68.3815 L 77.9389,68.0451 L 78.4227,67.6448
 L 78.8526,67.1871 L 79.2216,66.6791 L 79.5241,66.1289 L 79.7553,65.5451 L 79.9114,64.9369 L 80,64
 L 80,-64 L 79.9606,-64.6267 L 79.8429,-65.2435 L 79.6489,-65.8406 L 79.3815,-66.4088 L 79.0451,-66.9389
 L 78.6448,-67.4227 L 78.1871,-67.8526 L 77.6791,-68.2216 L 77.1289,-68.5241 L 76.5451,-68.7553 L 75.9369,-68.9114
 L 75,-69 L -75,-69 L -75.6267,-68.9606 L -76.2435,-68.8429 L -76.8406,-68.6489 L -77.4088,-68.3815
 L -77.9389,-68.0451 L -78.4227,-67.6448 L -78.8526,-67.1871 L -79.2216,-66.6791 L -79.5241,-66.1289 L -79.7553,-65.5451
 L -79.9114,-64.9369 L -80,-64 L -80,64 L -79.9606,64.6267 L -79.8429,65.2435 L -79.6489,65.8406
 L -79.3815,66.4088 L -79.0451,66.9389 L -78.6448,67.4227 L -78.1871,67.8526 L -77.6791,68.2216 L -77.1289,68.5241
 L -76.5451,68.7553 L -75.9369,68.9114 L -75,69 L 75,69 z
M -65.3297,-48.7604 L -65.9837,-48.843 L -66.6223,-49.007 L -67.2353,-49.2497 L -67.8131,-49.5673 L -68.3465,-49.9548
 L -68.8271,-50.4061 L -69.2473,-50.9141 L -69.6006,-51.4708 L -69.8813,-52.0673 L -70.0851,-52.6944 L -70.2086,-53.342
 L -70.25,-54 L -70.2086,-54.658 L -70.0851,-55.3056 L -69.8813,-55.9327 L -69.6006,-56.5292 L -69.2473,-57.0859
 L -68.8271,-57.5939 L -68.3465,-58.0452 L -67.8131,-58.4327 L -67.2353,-58.7503 L -66.6223,-58.993 L -65.9837,-59.157
 L -65.3297,-59.2396 L -64.6703,-59.2396 L -64.0163,-59.157 L -63.3777,-58.993 L -62.7647,-58.7503 L -62.1869,-58.4327
 L -61.6535,-58.0452 L -61.1729,-57.5939 L -60.7527,-57.0859 L -60.3994,-56.5292 L -60.1187,-55.9327 L -59.9149,-55.3056
 L -59.7914,-54.658 L -59.75,-54 L -59.7914,-53.342 L -59.9149,-52.6944 L -60.1187,-52.0673 L -60.3994,-51.4708
 L -60.7527,-50.9141 L -61.1729,-50.4061 L -61.6535,-49.9548 L -62.1869,-49.5673 L -62.7647,-49.2497 L -63.3777,-49.007
 L -64.0163,-48.843 L -64.6703,-48.7604 z
M 64.6703,-48.7604 L 64.0163,-48.843 L 63.3777,-49.007 L 62.7647,-49.2497 L 62.1869,-49.5673 L 61.6535,-49.9548
 L 61.1729,-50.4061 L 60.7527,-50.9141 L 60.3994,-51.4708 L 60.1187,-52.0673 L 59.9149,-52.6944 L 59.7914,-53.342
 L 59.75,-54 L 59.7914,-54.658 L 59.9149,-55.3056 L 60.1187,-55.9327 L 60.3994,-56.5292 L 60.7527,-57.0859
 L 61.1729,-57.5939 L 61.6535,-58.0452 L 62.1869,-58.4327 L 62.7647,-58.7503 L 63.3777,-58.993 L 64.0163,-59.157
 L 64.6703,-59.2396 L 65.3297,-59.2396 L 65.9837,-59.157 L 66.6223,-58.993 L 67.2353,-58.7503 L 67.8131,-58.4327
 L 68.3465,-58.0452 L 68.8271,-57.5939 L 69.2473,-57.0859 L 69.6006,-56.5292 L 69.8813,-55.9327 L 70.0851,-55.3056
 L 70.2086,-54.658 L 70.25,-54 L 70.2086,-53.342 L 70.0851,-52.6944 L 69.8813,-52.0673 L 69.6006,-51.4708
 L 69.2473,-50.9141 L 68.8271,-50.4061 L 68.3465,-49.9548 L 67.8131,-49.5673 L 67.2353,-49.2497 L 66.6223,-49.007
 L 65.9837,-48.843 L 65.3297,-48.7604 z
M -65.1727,-19.2554 L -65.5153,-19.2987 L -65.8498,-19.3846 L -66.1709,-19.5117 L -66.4735,-19.6781 L -66.7529,-19.8811
 L -67.0047,-20.1175 L -67.2248,-20.3836 L -67.4098,-20.6752 L -67.5569,-20.9877 L -67.6636,-21.3161 L -67.7283,-21.6553
 L -67.75,-22 L -67.7283,-22.3447 L -67.6636,-22.6839 L -67.5569,-23.0123 L -67.4098,-23.3248 L -67.2248,-23.6164
 L -67.0047,-23.8825 L -66.7529,-24.1189 L -66.4735,-24.3219 L -66.1709,-24.4883 L -65.8498,-24.6154 L -65.5153,-24.7013
 L -65.1727,-24.7446 L -64.8273,-24.7446 L -64.4847,-24.7013 L -64.1502,-24.6154 L -63.8291,-24.4883 L -63.5265,-24.3219
 L -63.2471,-24.1189 L -62.9953,-23.8825 L -62.7752,-23.6164 L -62.5902,-23.3248 L -62.4431,-23.0123 L -62.3364,-22.6839
 L -62.2717,-22.3447 L -62.25,-22 L -62.2717,-21.6553 L -62.3364,-21.3161 L -62.4431,-20.9877 L -62.5902,-20.6752
 L -62.7752,-20.3836 L -62.9953,-20.1175 L -63.2471,-19.8811 L -63.5265,-19.6781 L -63.8291,-19.5117 L -64.1502,-19.3846
 L -64.4847,-19.2987 L -64.8273,-19.2554 z
M 64.8273,-19.2554 L 64.4847,-19.2987 L 64.1502,-19.3846 L 63.8291,-19.5117 L 63.5265,-19.6781 L 63.2471,-19.8811
 L 62.9953,-20.1175 L 62.7752,-20.3836 L 62.5902,-20.6752 L 62.4431,-20.9877 L 62.3364,-21.3161 L 62.2717,-21.6553
 L 62.25,-22 L 62.2717,-22.3447 L 62.3364,-22.6839 L 62.4431,-23.0123 L 62.5902,-23.3248 L 62.7752,-23.6164
 L 62.9953,-23.8825 L 63.2471,-24.1189 L 63.5265,-24.3219 L 63.8291,-24.4883 L 64.1502,-24.6154 L 64.4847,-24.7013
 L 64.8273,-24.7446 L 65.1727,-24.7446 L 65.5153,-24.7013 L 65.8498,-24.6154 L 66.1709,-24.4883 L 66.4735,-24.3219
 L 66.7529,-24.1189 L 67.0047,-23.8825 L 67.2248,-23.6164 L 67.4098,-23.3248 L 67.5569,-23.0123 L 67.6636,-22.6839
 L 67.7283,-22.3447 L 67.75,-22 L 67.7283,-21.6553 L 67.6636,-21.3161 L 67.5569,-20.9877 L 67.4098,-20.6752
 L 67.2248,-20.3836 L 67.0047,-20.1175 L 66.7529,-19.8811 L 66.4735,-19.6781 L 66.1709,-19.5117 L 65.8498,-19.3846
 L 65.5153,-19.2987 L 65.1727,-19.2554 z
M 64.8273,24.7446 L 64.4847,24.7013 L 64.1502,24.6154 L 63.8291,24.4883 L 63.5265,24.3219 L 63.2471,24.1189
 L 62.9953,23.8825 L 62.7752,23.6164 L 62.5902,23.3248 L 62.4431,23.0123 L 62.3364,22.6839 L 62.2717,22.3447
 L 62.25,22 L 62.2717,21.6553 L 62.3364,21.3161 L 62.4431,20.9877 L 62.5902,20.6752 L 62.7752,20.3836
 L 62.9953,20.1175 L 63.2471,19.8811 L 63.5265,19.6781 L 63.8291,19.5117 L 64.1502,19.3846 L 64.4847,19.2987
 L 64.8273,19.2554 L 65.1727,19.2554 L 65.5153,19.2987 L 65.8498,19.3846 L 66.1709,19.5117 L 66.4735,19.6781
 L 66.7529,19.8811 L 67.0047,20.1175 L 67.2248,20.3836 L 67.4098,20.6752 L 67.5569,20.9877 L 67.6636,21.3161
 L 67.7283,21.6553 L 67.75,22 L 67.7283,22.3447 L 67.6636,22.6839 L 67.5569,23.0123 L 67.4098,23.3248
 L 67.2248,23.6164 L 67.0047,23.8825 L 66.7529,24.1189 L 66.4735,24.3219 L 66.1709,24.4883 L 65.8498,24.6154
 L 65.5153,24.7013 L 65.1727,24.7446 z
M -65.1727,24.7446 L -65.5153,24.7013 L -65.8498,24.6154 L -66.1709,24.4883 L -66.4735,24.3219 L -66.7529,24.1189
 L -67.0047,23.8825 L -67.2248,23.6164 L -67.4098,23.3248 L -67.5569,23.0123 L -67.6636,22.6839 L -67.7283,22.3447
 L -67.75,22 L -67.7283,21.6553 L -67.6636,21.3161 L -67.5569,20.9877 L -67.4098,20.6752 L -67.2248,20.3836
 L -67.0047,20.1175 L -66.7529,19.8811 L -66.4735,19.6781 L -66.1709,19.5117 L -65.8498,19.3846 L -65.5153,19.2987
 L -65.1727,19.2554 L -64.8273,19.2554 L -64.4847,19.2987 L -64.1502,19.3846 L -63.8291,19.5117 L -63.5265,19.6781
 L -63.2471,19.8811 L -62.9953,20.1175 L -62.7752,20.3836 L -62.5902,20.6752 L -62.4431,20.9877 L -62.3364,21.3161
 L -62.2717,21.6553 L -62.25,22 L -62.2717,22.3447 L -62.3364,22.6839 L -62.4431,23.0123 L -62.5902,23.3248
 L -62.7752,23.6164 L -62.9953,23.8825 L -63.2471,24.1189 L -63.5265,24.3219 L -63.8291,24.4883 L -64.1502,24.6154
 L -64.4847,24.7013 L -64.8273,24.7446 z
M -65.3297,59.2396 L -65.9837,59.157 L -66.6223,58.993 L -67.2353,58.7503 L -67.8131,58.4327 L -68.3465,58.0452
 L -68.8271,57.5939 L -69.2473,57.0859 L -69.6006,56.5292 L -69.8813,55.9327 L -70.0851,55.3056 L -70.2086,54.658
 L -70.25,54 L -70.2086,53.342 L -70.0851,52.6944 L -69.8813,52.0673 L -69.6006,51.4708 L -69.2473,50.9141
 L -68.8271,50.4061 L -68.3465,49.9548 L -67.8131,49.5673 L -67.2353,49.2497 L -66.6223,49.007 L -65.9837,48.843
 L -65.3297,48.7604 L -64.6703,48.7604 L -64.0163,48.843 L -63.3777,49.007 L -62.7647,49.2497 L -62.1869,49.5673
 L -61.6535,49.9548 L -61.1729,50.4061 L -60.7527,50.9141 L -60.3994,51.4708 L -60.1187,52.0673 L -59.9149,52.6944
 L -59.7914,53.342 L -59.75,54 L -59.7914,54.658 L -59.9149,55.3056 L -60.1187,55.9327 L -60.3994,56.5292
 L -60.7527,57.0859 L -61.1729,57.5939 L -61.6535,58.0452 L -62.1869,58.4327 L -62.7647,58.7503 L -63.3777,58.993
 L -64.0163,59.157 L -64.6703,59.2396 z
M 64.6703,59.2396 L 64.0163,59.157 L 63.3777,58.993 L 62.7647,58.7503 L 62.1869,58.4327 L 61.6535,58.0452
 L 61.1729,57.5939 L 60.7527,57.0859 L 60.3994,56.5292 L 60.1187,55.9327 L 59.9149,55.3056 L 59.7914,54.658
 L 59.75,54 L 59.7914,53.342 L 59.9149,52.6944 L 60.1187,52.0673 L 60.3994,51.4708 L 60.7527,50.9141
 L 61.1729,50.4061 L 61.6535,49.9548 L 62.1869,49.5673 L 62.7647,49.2497 L 63.3777,49.007 L 64.0163,48.843
 L 64.6703,48.7604 L 65.3297,48.7604 L 65.9837,48.843 L 66.6223,49.007 L 67.2353,49.2497 L 67.8131,49.5673
 L 68.3465,49.9548 L 68.8271,50.4061 L 69.2473,50.9141 L 69.6006,51.4708 L 69.8813,52.0673 L 70.0851,52.6944
 L 70.2086,53.342 L 70.25,54 L 70.2086,54.658 L 70.0851,55.3056 L 69.8813,55.9327 L 69.6006,56.5292
 L 69.2473,57.0859 L 68.8271,57.5939 L 68.3465,58.0452 L 67.8131,58.4327 L 67.2353,58.7503 L 66.6223,58.993
 L 65.9837,59.157 L 65.3297,59.2396 z
" stroke="black" fill="lightgray" stroke-width="0.5"/>
</svg>
